<?xml version="1.0" encoding="UTF-8" standalone="no"?>
<svg
  xmlns="http://www.w3.org/2000/svg" version="1.1"
  width="400px"
  height="400px"
  viewBox="0 0 1000.0 1000.0">
<path stroke="#000000" stroke-width="2" fill="none"
  d="M 160.0,951.7 L 160.0,228.9 L 882.8,228.9 L 882.8,951.7 L 160.0,951.7 "
 />

<g>

<text x="911.7" y="1013.1" font-family="Arial" font-size="36.2" fill="#000000" text-anchor="start">
x 1000
</text>

<text x="521.4" y="1049.2" font-family="Arial" font-size="36.2" fill="#000000" text-anchor="middle">
epoch
</text>

<text x="167.1" y="1013.1" font-family="Arial" font-size="36.2" fill="#000000" text-anchor="middle">
0
</text>

<text x="308.8" y="1013.1" font-family="Arial" font-size="36.2" fill="#000000" text-anchor="middle">
0.2
</text>

<text x="450.6" y="1013.1" font-family="Arial" font-size="36.2" fill="#000000" text-anchor="middle">
0.4
</text>

<text x="592.3" y="1013.1" font-family="Arial" font-size="36.2" fill="#000000" text-anchor="middle">
0.6
</text>

<text x="734.0" y="1013.1" font-family="Arial" font-size="36.2" fill="#000000" text-anchor="middle">
0.8
</text>

<text x="875.7" y="1013.1" font-family="Arial" font-size="36.2" fill="#000000" text-anchor="middle">
1
</text>
<path stroke="#000000" stroke-width="2" fill="none"
  d="M 160.0,951.7 L 882.8,951.7 M 167.1,969.7 L 167.1,933.6 M 308.8,969.7 L 308.8,933.6 M 450.6,969.7 L 450.6,933.6 M 592.3,969.7 L 592.3,933.6 M 734.0,969.7 L 734.0,933.6 M 875.7,969.7 L 875.7,933.6 "
 />
<path stroke="#000000" stroke-width="2" fill="none"
  d="M 160.0,228.9 L 882.8,228.9 M 167.1,247.0 L 167.1,210.9 M 308.8,247.0 L 308.8,210.9 M 450.6,247.0 L 450.6,210.9 M 592.3,247.0 L 592.3,210.9 M 734.0,247.0 L 734.0,210.9 M 875.7,247.0 L 875.7,210.9 "
 />

<text x="69.7" y="590.3" font-family="Arial" font-size="36.2" fill="#000000" writing-mode="tb" text-anchor="middle">
correl
</text>

<text x="134.7" y="966.1" font-family="Arial" font-size="36.2" fill="#000000" text-anchor="end">
0
</text>

<text x="134.7" y="893.9" font-family="Arial" font-size="36.2" fill="#000000" text-anchor="end">
0.1
</text>

<text x="134.7" y="821.6" font-family="Arial" font-size="36.2" fill="#000000" text-anchor="end">
0.2
</text>

<text x="134.7" y="749.3" font-family="Arial" font-size="36.2" fill="#000000" text-anchor="end">
0.3
</text>

<text x="134.7" y="677.0" font-family="Arial" font-size="36.2" fill="#000000" text-anchor="end">
0.4
</text>

<text x="134.7" y="604.8" font-family="Arial" font-size="36.2" fill="#000000" text-anchor="end">
0.5
</text>

<text x="134.7" y="532.5" font-family="Arial" font-size="36.2" fill="#000000" text-anchor="end">
0.6
</text>

<text x="134.7" y="460.2" font-family="Arial" font-size="36.2" fill="#000000" text-anchor="end">
0.7
</text>

<text x="134.7" y="387.9" font-family="Arial" font-size="36.2" fill="#000000" text-anchor="end">
0.8
</text>

<text x="134.7" y="315.7" font-family="Arial" font-size="36.2" fill="#000000" text-anchor="end">
0.9
</text>

<text x="134.7" y="243.4" font-family="Arial" font-size="36.2" fill="#000000" text-anchor="end">
1
</text>
<path stroke="#000000" stroke-width="2" fill="none"
  d="M 160.0,951.7 L 160.0,228.9 M 142.0,951.7 L 178.1,951.7 M 142.0,879.4 L 178.1,879.4 M 142.0,807.1 L 178.1,807.1 M 142.0,734.9 L 178.1,734.9 M 142.0,662.6 L 178.1,662.6 M 142.0,590.3 L 178.1,590.3 M 142.0,518.0 L 178.1,518.0 M 142.0,445.8 L 178.1,445.8 M 142.0,373.5 L 178.1,373.5 M 142.0,301.2 L 178.1,301.2 M 142.0,228.9 L 178.1,228.9 "
 />
<path stroke="#000000" stroke-width="2" fill="none"
  d="M 882.8,951.7 L 882.8,228.9 M 864.7,951.7 L 900.8,951.7 M 864.7,879.4 L 900.8,879.4 M 864.7,807.1 L 900.8,807.1 M 864.7,734.9 L 900.8,734.9 M 864.7,662.6 L 900.8,662.6 M 864.7,590.3 L 900.8,590.3 M 864.7,518.0 L 900.8,518.0 M 864.7,445.8 L 900.8,445.8 M 864.7,373.5 L 900.8,373.5 M 864.7,301.2 L 900.8,301.2 M 864.7,228.9 L 900.8,228.9 "
 />

</g>

<g>
<path stroke="#000000" stroke-width="1" fill="none"
  d=""
 />
<path stroke="#000000" stroke-width="1" fill="none"
  d="M 167.1,951.7 
L 178.5,428.4 L 189.8,384.9 L 201.1,396.0 L 212.5,387.7 L 223.8,389.3 L 235.2,368.3 L 246.5,407.0 L 257.8,375.5 L 269.2,384.6 L 280.5,371.3 
L 291.8,361.4 L 303.2,393.9 L 314.5,372.8 L 325.8,378.7 L 337.2,393.3 L 348.5,403.1 L 359.9,379.2 L 371.2,388.5 L 382.5,371.6 L 393.9,331.2 
L 405.2,340.1 L 416.5,280.8 L 427.9,302.6 L 439.2,289.4 L 450.6,288.2 L 461.9,300.9 L 473.2,274.0 L 484.6,289.3 L 495.9,288.9 L 507.2,286.5 
L 518.6,284.1 L 529.9,280.7 L 541.3,293.9 L 552.6,289.4 L 563.9,274.7 L 575.3,288.0 L 586.6,275.9 L 597.9,275.5 L 609.3,274.2 L 620.6,287.6 
L 631.9,293.1 L 643.3,293.6 L 654.6,289.5 L 666.0,276.2 L 677.3,307.6 L 688.6,285.8 L 700.0,279.0 L 711.3,268.4 L 722.6,274.8 L 734.0,275.3 
L 745.3,278.7 L 756.7,268.4 L 768.0,263.8 L 779.3,270.7 L 790.7,272.5 L 802.0,286.9 L 813.3,272.8 L 824.7,279.8 L 836.0,277.8 L 847.3,273.5 
L 858.7,272.4 L 870.0,268.5 "
 />
<path stroke="#000000" stroke-width="1" fill="none"
  d="






"
 />
<path stroke="#000000" stroke-width="1" fill="none"
  d="M 159.9,951.7 L 174.4,951.7 L 167.1,951.7 L 167.1,958.9 L 167.1,944.5 L 167.1,951.7 L 159.9,944.5 L 174.4,958.9 L 167.1,951.7 L 174.4,944.5 L 159.9,958.9 "
 />
<path stroke="#000000" stroke-width="1" fill="none"
  d="






"
 />

</g>
</svg>
