<?xml version="1.0" encoding="utf-8"?>
<svg width="356.25pt" height="414.75pt" viewBox="0 0 356.25 414.75" xmlns="http://www.w3.org/2000/svg">
  <g transform="matrix(1, 0, 0, -1, -0.277054, 414.75)">
    <text x="134.43" y="-403.23" transform="scale(1, -1)" style="font-family: Helvetica; font-weight: normal; font-style: normal; font-size: 12px; white-space: pre;">Leabra TEs Clusters</text>
    <text x="40.325" y="-15.599" transform="scale(1, -1)" style="font-family: Helvetica; font-weight: normal; font-style: normal; font-size: 10px; white-space: pre;">0</text>
    <text x="174.49" y="-15.599" transform="scale(1, -1)" style="font-family: Helvetica; font-weight: normal; font-style: normal; font-size: 10px; white-space: pre;">5</text>
    <text x="305.88" y="-15.599" transform="scale(1, -1)" style="font-family: Helvetica; font-weight: normal; font-style: normal; font-size: 10px; white-space: pre;">10</text>
    <path d="M43.105,25.198L43.105,33.198" style="fill:none;stroke:#000000;stroke-width:0.5"/>
    <path d="M177.27,25.198L177.27,33.198" style="fill:none;stroke:#000000;stroke-width:0.5"/>
    <path d="M311.44,25.198L311.44,33.198" style="fill:none;stroke:#000000;stroke-width:0.5"/>
    <path d="M69.939,29.198L69.939,33.198" style="fill:none;stroke:#000000;stroke-width:0.5"/>
    <path d="M96.773,29.198L96.773,33.198" style="fill:none;stroke:#000000;stroke-width:0.5"/>
    <path d="M123.61,29.198L123.61,33.198" style="fill:none;stroke:#000000;stroke-width:0.5"/>
    <path d="M150.44,29.198L150.44,33.198" style="fill:none;stroke:#000000;stroke-width:0.5"/>
    <path d="M204.11,29.198L204.11,33.198" style="fill:none;stroke:#000000;stroke-width:0.5"/>
    <path d="M230.94,29.198L230.94,33.198" style="fill:none;stroke:#000000;stroke-width:0.5"/>
    <path d="M257.78,29.198L257.78,33.198" style="fill:none;stroke:#000000;stroke-width:0.5"/>
    <path d="M284.61,29.198L284.61,33.198" style="fill:none;stroke:#000000;stroke-width:0.5"/>
    <path d="M43.105,33.198L317.39,33.198" style="fill:none;stroke:#000000;stroke-width:0.5"/>
    <text x="20.96" y="-33.749" transform="scale(1, -1)" style="font-family: Helvetica; font-weight: normal; font-style: normal; font-size: 10px; white-space: pre;">0</text>
    <text x="20.96" y="-195.79" transform="scale(1, -1)" style="font-family: Helvetica; font-weight: normal; font-style: normal; font-size: 10px; white-space: pre;">9</text>
    <text x="15.398" y="-357.83" transform="scale(1, -1)" style="font-family: Helvetica; font-weight: normal; font-style: normal; font-size: 10px; white-space: pre;">18</text>
    <path d="M29.3,38.448L37.3,38.448" style="fill:none;stroke:#000000;stroke-width:0.5"/>
    <path d="M29.3,200.49L37.3,200.49" style="fill:none;stroke:#000000;stroke-width:0.5"/>
    <path d="M29.3,362.53L37.3,362.53" style="fill:none;stroke:#000000;stroke-width:0.5"/>
    <path d="M33.3,119.47L37.3,119.47" style="fill:none;stroke:#000000;stroke-width:0.5"/>
    <path d="M33.3,281.51L37.3,281.51" style="fill:none;stroke:#000000;stroke-width:0.5"/>
    <path d="M37.3,38.448L37.3,389.54" style="fill:none;stroke:#000000;stroke-width:0.5"/>
    <path d="M43.105,264.17L43.105,264.17L43.105,156.67L110.45,156.67L110.45,85.71L140.41,85.71L140.41,69.956L169.12,69.956L169.12,56.453L193.1,56.453L193.1,47.451L216.88,47.451L216.88,47.451L193.1,47.451L193.1,65.455L216.88,65.455L216.88,65.455L193.1,65.455L193.1,56.453L169.12,56.453L169.12,83.46L193.1,83.46L193.1,83.46L169.12,83.46L169.12,69.956L140.41,69.956L140.41,101.46L169.12,101.46L169.12,101.46L140.41,101.46L140.41,85.71L110.45,85.71L110.45,227.64L140.41,227.64L140.41,209.77L167.15,209.77L167.15,192.05L193.02,192.05L193.02,174.61L218.94,174.61L218.94,157.73L245.16,157.73L245.16,141.97L270.39,141.97L270.39,128.47L294.6,128.47L294.6,119.47L317.39,119.47L317.39,119.47L294.6,119.47L294.6,137.47L317.39,137.47L317.39,137.47L294.6,137.47L294.6,128.47L270.39,128.47L270.39,155.48L294.6,155.48L294.6,155.48L270.39,155.48L270.39,141.97L245.16,141.97L245.16,173.48L270.39,173.48L270.39,173.48L245.16,173.48L245.16,157.73L218.94,157.73L218.94,191.49L245.16,191.49L245.16,191.49L218.94,191.49L218.94,174.61L193.02,174.61L193.02,209.49L218.94,209.49L218.94,209.49L193.02,209.49L193.02,192.05L167.15,192.05L167.15,227.5L193.02,227.5L193.02,227.5L167.15,227.5L167.15,209.77L140.41,209.77L140.41,245.5L167.15,245.5L167.15,245.5L140.41,245.5L140.41,227.64L110.45,227.64L110.45,156.67L43.105,156.67L43.105,371.67L110.45,371.67L110.45,353.81L138,353.81L138,336.09L161.5,336.09L161.5,318.64L183.27,318.64L183.27,301.76L205.92,301.76L205.92,286.01L226.61,286.01L226.61,272.51L246.57,272.51L246.57,263.51L265.19,263.51L265.19,263.51L246.57,263.51L246.57,281.51L265.19,281.51L265.19,281.51L246.57,281.51L246.57,272.51L226.61,272.51L226.61,299.51L246.57,299.51L246.57,299.51L226.61,299.51L226.61,286.01L205.92,286.01L205.92,317.52L226.61,317.52L226.61,317.52L205.92,317.52L205.92,301.76L183.27,301.76L183.27,335.52L205.92,335.52L205.92,335.52L183.27,335.52L183.27,318.64L161.5,318.64L161.5,353.53L183.27,353.53L183.27,353.53L161.5,353.53L161.5,336.09L138,336.09L138,371.53L161.5,371.53L161.5,371.53L138,371.53L138,353.81L110.45,353.81L110.45,389.54L138,389.54L138,389.54L110.45,389.54L110.45,371.67L43.105,371.67L43.105,264.17L43.105,264.17L43.105,264.17" style="fill:none;stroke:#000000"/>
    <text transform="scale(1, -1)" style="fill: rgb(255, 0, 242); font-family: Times; font-size: 10px; white-space: pre;" x="216.88" y="-47.636">motorcycle</text>
    <text transform="scale(1, -1)" style="fill: rgb(255, 0, 242); font-family: Times; font-size: 10px; white-space: pre;" x="216.88" y="-65.641">car</text>
    <text transform="scale(1, -1)" style="fill: rgb(255, 0, 242); font-family: Times; font-size: 10px; white-space: pre;" x="193.1" y="-83.645">heavycannon</text>
    <text transform="scale(1, -1)" style="fill: rgb(255, 0, 242); font-family: Times; font-size: 10px; white-space: pre;" x="169.12" y="-101.65">stapler</text>
    <text transform="scale(1, -1)" style="fill: rgb(20, 63, 255); font-family: Times; font-size: 10px; white-space: pre;" x="317.39" y="-119.65">slrcamera</text>
    <text transform="scale(1, -1)" style="fill: rgb(0, 199, 43); font-family: Times; font-size: 10px; white-space: pre;" x="317.39" y="-137.66">donut</text>
    <text transform="matrix(1, 0, 0, -1, 0, 0)" style="fill: rgb(20, 63, 255); font-family: Times; font-size: 10px; white-space: pre;" x="294.6" y="-155.66">fish</text>
    <text transform="scale(1, -1)" style="fill: rgb(20, 63, 255); font-family: Times; font-size: 10px; white-space: pre;" x="270.39" y="-173.67">elephant</text>
    <text transform="scale(1, -1)" style="fill: rgb(0, 199, 43); font-family: Times; font-size: 10px; white-space: pre;" x="245.16" y="-191.67">handgun</text>
    <text transform="scale(1, -1)" style="fill: rgb(0, 199, 43); font-family: Times; font-size: 10px; white-space: pre;" x="218.94" y="-209.68">doorknob</text>
    <text transform="scale(1, -1)" style="fill: rgb(20, 63, 255); font-family: Times; font-size: 10px; white-space: pre;" x="193.02" y="-227.68">piano</text>
    <text transform="scale(1, -1)" style="fill: rgb(0, 199, 43); font-family: Times; font-size: 10px; white-space: pre;" x="167.15" y="-245.69">chair</text>
    <text transform="scale(1, -1)" style="fill: rgb(255, 20, 20); font-family: Times; font-size: 10px; white-space: pre;" x="265.19" y="-263.69">trafficcone</text>
    <text transform="scale(1, -1)" style="fill: rgb(255, 20, 20); font-family: Times; font-size: 10px; white-space: pre;" x="265.19" y="-281.7">layercake</text>
    <text transform="scale(1, -1)" style="fill: rgb(255, 20, 20); font-family: Times; font-size: 10px; white-space: pre;" x="246.57" y="-299.7">banana</text>
    <text transform="scale(1, -1)" style="fill: rgb(255, 20, 20); font-family: Times; font-size: 10px; white-space: pre;" x="226.61" y="-317.7">trex</text>
    <text transform="scale(1, -1)" style="fill: rgb(255, 145, 0); font-family: Times; font-size: 10px; white-space: pre;" x="205.92" y="-335.71">guitar</text>
    <text transform="scale(1, -1)" style="fill: rgb(255, 145, 0); font-family: Times; font-size: 10px; white-space: pre;" x="183.27" y="-353.71">person</text>
    <text transform="matrix(1, 0, 0, -1, 0, 0)" style="fill: rgb(255, 20, 20); font-family: Times; font-size: 10px; white-space: pre;" x="161.5" y="-371.72">sailboat</text>
    <text transform="scale(1, -1)" style="fill: rgb(255, 145, 0); font-family: Times; font-size: 10px; white-space: pre;" x="138" y="-389.72">tablelamp</text>
  </g>
</svg>