<?xml version="1.0" encoding="UTF-8" standalone="no"?>
<svg
   xmlns:dc="http://purl.org/dc/elements/1.1/"
   xmlns:cc="http://creativecommons.org/ns#"
   xmlns:rdf="http://www.w3.org/1999/02/22-rdf-syntax-ns#"
   xmlns:svg="http://www.w3.org/2000/svg"
   xmlns="http://www.w3.org/2000/svg"
   xmlns:sodipodi="http://sodipodi.sourceforge.net/DTD/sodipodi-0.dtd"
   xmlns:inkscape="http://www.inkscape.org/namespaces/inkscape"
   inkscape:export-ydpi="96"
   inkscape:export-xdpi="96"
   inkscape:export-filename="/Users/oreilly/ccngit/deep-obj-cat/results/wwi_20obj_2019/fig_leabra_simat_over_lays.png"
   inkscape:version="1.0beta1 (32d4812, 2019-09-19)"
   sodipodi:docname="fig_leabra_simat_over_lays.svg"
   id="svg1439"
   viewBox="0 0 1000.0 1000.0"
   height="400px"
   width="400px"
   version="1.1">
  <metadata
     id="metadata1445">
    <rdf:RDF>
      <cc:Work
         rdf:about="">
        <dc:format>image/svg+xml</dc:format>
        <dc:type
           rdf:resource="http://purl.org/dc/dcmitype/StillImage" />
      </cc:Work>
    </rdf:RDF>
  </metadata>
  <defs
     id="defs1443" />
  <sodipodi:namedview
     inkscape:window-maximized="0"
     inkscape:window-y="243"
     inkscape:window-x="1418"
     inkscape:document-rotation="0"
     inkscape:current-layer="svg1439"
     inkscape:cy="249.2057"
     inkscape:cx="215.39908"
     inkscape:zoom="2.6257346"
     showgrid="false"
     id="namedview1441"
     inkscape:window-height="1649"
     inkscape:window-width="1915"
     inkscape:pageshadow="2"
     inkscape:pageopacity="0"
     guidetolerance="10"
     gridtolerance="10"
     objecttolerance="10"
     borderopacity="1"
     bordercolor="#666666"
     pagecolor="#ffffff" />
  <path
     id="path1359"
     d="M 251.7,771.9 L 251.7,187.8 L 835.9,187.8 L 835.9,771.9 L 251.7,771.9 "
     fill="none"
     stroke-width="2"
     stroke="#000000" />
  <text
     x="543.79999"
     y="862.22131"
     font-size="29.2"
     id="text1361"
     style="font-style:normal;font-variant:normal;font-weight:normal;font-stretch:normal;font-size:40px;font-family:Arial;-inkscape-font-specification:'Arial, Normal';font-variant-ligatures:normal;font-variant-caps:normal;font-variant-numeric:normal;font-feature-settings:normal;text-align:center;writing-mode:lr-tb;text-anchor:middle;fill:#000000">Layer</text>
  <text
     x="288.29999"
     y="821.59998"
     font-size="29.2"
     id="text1363"
     style="font-style:normal;font-variant:normal;font-weight:normal;font-stretch:normal;font-size:40px;font-family:Arial;-inkscape-font-specification:'Arial, Normal';font-variant-ligatures:normal;font-variant-caps:normal;font-variant-numeric:normal;font-feature-settings:normal;text-align:center;writing-mode:lr-tb;text-anchor:middle;fill:#000000">V1</text>
  <text
     x="361.29999"
     y="821.59998"
     font-size="29.2"
     id="text1365"
     style="font-style:normal;font-variant:normal;font-weight:normal;font-stretch:normal;font-size:40px;font-family:Arial;-inkscape-font-specification:'Arial, Normal';font-variant-ligatures:normal;font-variant-caps:normal;font-variant-numeric:normal;font-feature-settings:normal;text-align:center;writing-mode:lr-tb;text-anchor:middle;fill:#000000">V1h</text>
  <text
     x="434.29999"
     y="821.59998"
     font-size="29.2"
     id="text1367"
     style="font-style:normal;font-variant:normal;font-weight:normal;font-stretch:normal;font-size:40px;font-family:Arial;-inkscape-font-specification:'Arial, Normal';font-variant-ligatures:normal;font-variant-caps:normal;font-variant-numeric:normal;font-feature-settings:normal;text-align:center;writing-mode:lr-tb;text-anchor:middle;fill:#000000">V2</text>
  <text
     x="507.29999"
     y="821.59998"
     font-size="29.2"
     id="text1369"
     style="font-style:normal;font-variant:normal;font-weight:normal;font-stretch:normal;font-size:40px;font-family:Arial;-inkscape-font-specification:'Arial, Normal';font-variant-ligatures:normal;font-variant-caps:normal;font-variant-numeric:normal;font-feature-settings:normal;text-align:center;writing-mode:lr-tb;text-anchor:middle;fill:#000000">V3</text>
  <text
     x="580.29999"
     y="821.59998"
     font-size="29.2"
     id="text1371"
     style="font-style:normal;font-variant:normal;font-weight:normal;font-stretch:normal;font-size:40px;font-family:Arial;-inkscape-font-specification:'Arial, Normal';font-variant-ligatures:normal;font-variant-caps:normal;font-variant-numeric:normal;font-feature-settings:normal;text-align:center;writing-mode:lr-tb;text-anchor:middle;fill:#000000">DP</text>
  <text
     x="653.29999"
     y="821.59998"
     font-size="29.2"
     id="text1373"
     style="font-style:normal;font-variant:normal;font-weight:normal;font-stretch:normal;font-size:40px;font-family:Arial;-inkscape-font-specification:'Arial, Normal';font-variant-ligatures:normal;font-variant-caps:normal;font-variant-numeric:normal;font-feature-settings:normal;text-align:center;writing-mode:lr-tb;text-anchor:middle;fill:#000000">V4</text>
  <text
     x="726.29999"
     y="821.59998"
     font-size="29.2"
     id="text1375"
     style="font-style:normal;font-variant:normal;font-weight:normal;font-stretch:normal;font-size:40px;font-family:Arial;-inkscape-font-specification:'Arial, Normal';font-variant-ligatures:normal;font-variant-caps:normal;font-variant-numeric:normal;font-feature-settings:normal;text-align:center;writing-mode:lr-tb;text-anchor:middle;fill:#000000">TEO</text>
  <text
     x="799.40002"
     y="821.59998"
     font-size="29.2"
     id="text1377"
     style="font-style:normal;font-variant:normal;font-weight:normal;font-stretch:normal;font-size:40px;font-family:Arial;-inkscape-font-specification:'Arial, Normal';font-variant-ligatures:normal;font-variant-caps:normal;font-variant-numeric:normal;font-feature-settings:normal;text-align:center;writing-mode:lr-tb;text-anchor:middle;fill:#000000">TE</text>
  <path
     d="m 251.7,771.9 h 584.2 m -547.6,14.6 v -29.2 m 73,29.2 v -29.2 m 73,29.2 v -29.2 m 73,29.2 v -29.2 m 73,29.2 v -29.2 m 73,29.2 v -29.2 m 73,29.2 v -29.2 m 73.1,29.2 v -29.2"
     id="path1379"
     inkscape:connector-curvature="0"
     style="fill:none;stroke:#000000;stroke-width:2" />
  <path
     d="m 251.7,187.8 h 584.2 m -547.6,14.6 v -29.2 m 73,29.2 v -29.2 m 73,29.2 v -29.2 m 73,29.2 v -29.2 m 73,29.2 v -29.2 m 73,29.2 v -29.2 m 73,29.2 v -29.2 m 73.1,29.2 v -29.2"
     id="path1381"
     inkscape:connector-curvature="0"
     style="fill:none;stroke:#000000;stroke-width:2" />
  <text
     x="-150.50296"
     y="-493.83783"
     font-size="29.2"
     id="text1383"
     style="font-style:normal;font-variant:normal;font-weight:normal;font-stretch:normal;font-size:46.6667px;font-family:Arial;-inkscape-font-specification:'Arial, Normal';font-variant-ligatures:normal;font-variant-caps:normal;font-variant-numeric:normal;font-feature-settings:normal;text-align:center;writing-mode:tb-rl;text-anchor:middle;fill:#000000"
     transform="scale(-1)">Correlation</text>
  <text
     x="231.3"
     y="783.59998"
     font-size="29.2"
     id="text1385"
     style="font-style:normal;font-variant:normal;font-weight:normal;font-stretch:normal;font-size:40px;font-family:Arial;-inkscape-font-specification:'Arial, Normal';font-variant-ligatures:normal;font-variant-caps:normal;font-variant-numeric:normal;font-feature-settings:normal;text-align:end;writing-mode:lr-tb;text-anchor:end;fill:#000000">0</text>
  <text
     x="231.3"
     y="672.29999"
     font-size="29.2"
     id="text1387"
     style="font-style:normal;font-variant:normal;font-weight:normal;font-stretch:normal;font-size:40px;font-family:Arial;-inkscape-font-specification:'Arial, Normal';font-variant-ligatures:normal;font-variant-caps:normal;font-variant-numeric:normal;font-feature-settings:normal;text-align:end;writing-mode:lr-tb;text-anchor:end;fill:#000000">0.2</text>
  <text
     x="231.3"
     y="561.09998"
     font-size="29.2"
     id="text1389"
     style="font-style:normal;font-variant:normal;font-weight:normal;font-stretch:normal;font-size:40px;font-family:Arial;-inkscape-font-specification:'Arial, Normal';font-variant-ligatures:normal;font-variant-caps:normal;font-variant-numeric:normal;font-feature-settings:normal;text-align:end;writing-mode:lr-tb;text-anchor:end;fill:#000000">0.4</text>
  <text
     x="231.3"
     y="449.79999"
     font-size="29.2"
     id="text1391"
     style="font-style:normal;font-variant:normal;font-weight:normal;font-stretch:normal;font-size:40px;font-family:Arial;-inkscape-font-specification:'Arial, Normal';font-variant-ligatures:normal;font-variant-caps:normal;font-variant-numeric:normal;font-feature-settings:normal;text-align:end;writing-mode:lr-tb;text-anchor:end;fill:#000000">0.6</text>
  <text
     x="231.3"
     y="338.5"
     font-size="29.2"
     id="text1393"
     style="font-style:normal;font-variant:normal;font-weight:normal;font-stretch:normal;font-size:40px;font-family:Arial;-inkscape-font-specification:'Arial, Normal';font-variant-ligatures:normal;font-variant-caps:normal;font-variant-numeric:normal;font-feature-settings:normal;text-align:end;writing-mode:lr-tb;text-anchor:end;fill:#000000">0.8</text>
  <text
     x="231.3"
     y="227.3"
     font-size="29.2"
     id="text1395"
     style="font-style:normal;font-variant:normal;font-weight:normal;font-stretch:normal;font-size:40px;font-family:Arial;-inkscape-font-specification:'Arial, Normal';font-variant-ligatures:normal;font-variant-caps:normal;font-variant-numeric:normal;font-feature-settings:normal;text-align:end;writing-mode:lr-tb;text-anchor:end;fill:#000000">1</text>
  <path
     d="M 251.7,771.9 V 187.8 m -14.6,584.1 h 29.3 M 237.1,660.6 h 29.3 M 237.1,549.4 h 29.3 M 237.1,438.1 h 29.3 M 237.1,326.9 h 29.3 M 237.1,215.6 h 29.3"
     id="path1397"
     inkscape:connector-curvature="0"
     style="fill:none;stroke:#000000;stroke-width:2" />
  <path
     d="M 835.9,771.9 V 187.8 m -14.6,584.1 h 29.2 M 821.3,660.6 h 29.2 M 821.3,549.4 h 29.2 M 821.3,438.1 h 29.2 M 821.3,326.9 h 29.2 M 821.3,215.6 h 29.2"
     id="path1399"
     inkscape:connector-curvature="0"
     style="fill:none;stroke:#000000;stroke-width:2" />
  <path
     style="fill:none;stroke:#000000;stroke-width:2.5;stroke-miterlimit:4;stroke-dasharray:none"
     inkscape:connector-curvature="0"
     id="path1403"
     d="m 296.75076,317.15178 h 35.1" />
  <text
     style="font-style:normal;font-variant:normal;font-weight:normal;font-stretch:normal;font-size:46.6667px;font-family:Arial;-inkscape-font-specification:'Arial, Normal';font-variant-ligatures:normal;font-variant-caps:normal;font-variant-numeric:normal;font-feature-settings:normal;text-align:start;writing-mode:lr-tb;text-anchor:start;fill:#000000"
     id="text1405"
     font-size="23.4"
     y="326.31369"
     x="337.65076">V1 correl</text>
  <path
     style="fill:none;stroke:#ff0000;stroke-width:2.5;stroke-miterlimit:4;stroke-dasharray:none"
     inkscape:connector-curvature="0"
     id="path1409"
     d="m 296.75076,361.56802 h 35.1" />
  <text
     style="font-style:normal;font-variant:normal;font-weight:normal;font-stretch:normal;font-size:46.6667px;font-family:Arial;-inkscape-font-specification:'Arial, Normal';font-variant-ligatures:normal;font-variant-caps:normal;font-variant-numeric:normal;font-feature-settings:normal;text-align:start;writing-mode:lr-tb;text-anchor:start;fill:#ff0000"
     id="text1411"
     font-size="23.4"
     y="370.72992"
     x="337.65076">TEs correl</text>
  <path
     d=""
     id="path1417"
     inkscape:connector-curvature="0"
     style="fill:none;stroke:#000000;stroke-width:1" />
  <path
     d="m 288.3,215.6 73,3.2 73,8.8 73,-5.8 73,15.8 73,-17.7 73,72.3 73.1,190.6"
     id="path1419"
     inkscape:connector-curvature="0"
     style="fill:none;stroke:#000000;stroke-width:2.5;stroke-miterlimit:4;stroke-dasharray:none" />
  <path
     d=""
     id="path1421"
     inkscape:connector-curvature="0"
     style="fill:none;stroke:#000000;stroke-width:1" />
  <path
     d="m 294.1,215.6 -0.4,-2.2 -1.3,-1.9 -1.9,-1.3 -2.2,-0.4 -2.3,0.4 -1.9,1.3 -1.2,1.9 -0.5,2.2 0.5,2.2 1.2,1.9 1.9,1.3 2.3,0.4 2.2,-0.4 1.9,-1.3 1.3,-1.9 0.4,-2.2 m 73,3.2 -0.4,-2.2 -1.3,-1.9 -1.9,-1.3 -2.2,-0.4 -2.3,0.4 -1.9,1.3 -1.2,1.9 -0.5,2.2 0.5,2.3 1.2,1.9 1.9,1.2 2.3,0.5 2.2,-0.5 1.9,-1.2 1.3,-1.9 0.4,-2.3 m 73,8.8 -0.4,-2.2 -1.3,-1.9 -1.9,-1.3 -2.2,-0.4 -2.2,0.4 -1.9,1.3 -1.3,1.9 -0.5,2.2 0.5,2.3 1.3,1.9 1.9,1.2 2.2,0.5 2.2,-0.5 1.9,-1.2 1.3,-1.9 0.4,-2.3 m 73,-5.8 -0.4,-2.3 -1.3,-1.9 -1.9,-1.2 -2.2,-0.5 -2.2,0.5 -1.9,1.2 -1.3,1.9 -0.4,2.3 0.4,2.2 1.3,1.9 1.9,1.3 2.2,0.4 2.2,-0.4 1.9,-1.3 1.3,-1.9 0.4,-2.2 m 73.1,15.8 -0.5,-2.2 -1.3,-1.9 -1.8,-1.3 -2.3,-0.4 -2.2,0.4 -1.9,1.3 -1.3,1.9 -0.4,2.2 0.4,2.3 1.3,1.9 1.9,1.2 2.2,0.5 2.3,-0.5 1.8,-1.2 1.3,-1.9 0.5,-2.3 m 73,-17.7 -0.5,-2.2 -1.2,-1.9 -1.9,-1.3 -2.3,-0.4 -2.2,0.4 -1.9,1.3 -1.3,1.9 -0.4,2.2 0.4,2.3 1.3,1.9 1.9,1.2 2.2,0.5 2.3,-0.5 1.9,-1.2 1.2,-1.9 0.5,-2.3 m 73,72.3 -0.5,-2.3 -1.2,-1.9 -1.9,-1.2 -2.3,-0.5 -2.2,0.5 -1.9,1.2 -1.2,1.9 -0.5,2.3 0.5,2.2 1.2,1.9 1.9,1.3 2.2,0.4 2.3,-0.4 1.9,-1.3 1.2,-1.9 0.5,-2.2 m 73,190.6 -0.4,-2.2 -1.3,-1.9 -1.9,-1.3 -2.2,-0.4 -2.3,0.4 -1.9,1.3 -1.2,1.9 -0.5,2.2 0.5,2.3 1.2,1.9 1.9,1.2 2.3,0.5 2.2,-0.5 1.9,-1.2 1.3,-1.9 0.4,-2.3"
     id="path1423"
     inkscape:connector-curvature="0"
     style="fill:#000000;stroke:#000000;stroke-width:1;fill-opacity:1" />
  <path
     d=""
     id="path1425"
     inkscape:connector-curvature="0"
     style="fill:none;stroke:#000000;stroke-width:1" />
  <path
     d=""
     id="path1427"
     inkscape:connector-curvature="0"
     style="fill:none;stroke:#ff0000;stroke-width:1" />
  <path
     d="m 288.3,482.8 73,7.9 73,31.3 73,-50.3 73,-24.4 73,31.6 73,-174.4 73.1,-88.9"
     id="path1429"
     inkscape:connector-curvature="0"
     style="fill:none;stroke:#ff0000;stroke-width:2.5;stroke-miterlimit:4;stroke-dasharray:none" />
  <path
     d=""
     id="path1431"
     inkscape:connector-curvature="0"
     style="fill:none;stroke:#ff0000;stroke-width:1" />
  <path
     d="m 282.4,477 5.9,11.7 5.8,-11.7 h -11.7 m 73,7.9 5.9,11.7 5.8,-11.7 h -11.7 m 73,31.3 5.9,11.6 5.8,-11.6 h -11.7 m 73.1,-50.4 5.8,11.7 5.8,-11.7 h -11.6 m 73,-24.3 5.8,11.7 5.9,-11.7 h -11.7 m 73,31.6 5.8,11.7 5.9,-11.7 h -11.7 m 73,-174.4 5.8,11.6 5.9,-11.6 h -11.7 m 73,-88.9 5.9,11.6 5.8,-11.6 h -11.7"
     id="path1433"
     inkscape:connector-curvature="0"
     style="fill:#ff0000;stroke:#ff0000;stroke-width:1;fill-opacity:1" />
  <path
     d=""
     id="path1435"
     inkscape:connector-curvature="0"
     style="fill:none;stroke:#ff0000;stroke-width:1" />
  <rect
     y="281.0914"
     x="279.82233"
     height="100.88831"
     width="281.72589"
     id="rect2026"
     style="opacity:1;fill:none;fill-opacity:1;fill-rule:nonzero;stroke:#000000;stroke-width:2.5;stroke-linecap:butt;stroke-linejoin:miter;stroke-miterlimit:4;stroke-dasharray:none;stroke-dashoffset:0;stroke-opacity:1" />
</svg>
