<?xml version="1.0"?>
<!-- Generated by SVGo and Plotinum VG -->
<svg width="670.88pt" height="755.25pt" viewBox="0 0 670.88 755.25"
	xmlns="http://www.w3.org/2000/svg"
	xmlns:xlink="http://www.w3.org/1999/xlink">
<g transform="scale(1, -1) translate(0, -755.25)">
<text x="305.42" y="-743.73" transform="scale(1, -1)"
	style="font-family:Helvetica;font-weight:normal;font-style:normal;font-size:12px">Leabra Full</text>
<text x="336.34" y="-3.8789" transform="scale(1, -1)"
	style="font-family:Helvetica;font-weight:normal;font-style:normal;font-size:12px">X</text>
<text x="45.886" y="-15.599" transform="scale(1, -1)"
	style="font-family:Helvetica;font-weight:normal;font-style:normal;font-size:10px">0</text>
<text x="234.29" y="-15.599" transform="scale(1, -1)"
	style="font-family:Helvetica;font-weight:normal;font-style:normal;font-size:10px">4</text>
<text x="422.7" y="-15.599" transform="scale(1, -1)"
	style="font-family:Helvetica;font-weight:normal;font-style:normal;font-size:10px">8</text>
<text x="608.33" y="-15.599" transform="scale(1, -1)"
	style="font-family:Helvetica;font-weight:normal;font-style:normal;font-size:10px">12</text>
<path d="M48.667,25.198L48.667,33.198" style="fill:none;stroke:#000000;stroke-width:0.5" />
<path d="M237.08,25.198L237.08,33.198" style="fill:none;stroke:#000000;stroke-width:0.5" />
<path d="M425.48,25.198L425.48,33.198" style="fill:none;stroke:#000000;stroke-width:0.5" />
<path d="M613.89,25.198L613.89,33.198" style="fill:none;stroke:#000000;stroke-width:0.5" />
<path d="M95.769,29.198L95.769,33.198" style="fill:none;stroke:#000000;stroke-width:0.5" />
<path d="M142.87,29.198L142.87,33.198" style="fill:none;stroke:#000000;stroke-width:0.5" />
<path d="M189.97,29.198L189.97,33.198" style="fill:none;stroke:#000000;stroke-width:0.5" />
<path d="M284.18,29.198L284.18,33.198" style="fill:none;stroke:#000000;stroke-width:0.5" />
<path d="M331.28,29.198L331.28,33.198" style="fill:none;stroke:#000000;stroke-width:0.5" />
<path d="M378.38,29.198L378.38,33.198" style="fill:none;stroke:#000000;stroke-width:0.5" />
<path d="M472.59,29.198L472.59,33.198" style="fill:none;stroke:#000000;stroke-width:0.5" />
<path d="M519.69,29.198L519.69,33.198" style="fill:none;stroke:#000000;stroke-width:0.5" />
<path d="M566.79,29.198L566.79,33.198" style="fill:none;stroke:#000000;stroke-width:0.5" />
<path d="M48.667,33.198L632.01,33.198" style="fill:none;stroke:#000000;stroke-width:0.5" />
<g transform="rotate(90)">
<text x="380.24" y="11.52" transform="scale(1, -1)"
	style="font-family:Helvetica;font-weight:normal;font-style:normal;font-size:12px">Y</text>
</g>
<text x="26.521" y="-33.749" transform="scale(1, -1)"
	style="font-family:Helvetica;font-weight:normal;font-style:normal;font-size:10px">0</text>
<text x="20.96" y="-256.12" transform="scale(1, -1)"
	style="font-family:Helvetica;font-weight:normal;font-style:normal;font-size:10px">50</text>
<text x="15.398" y="-478.5" transform="scale(1, -1)"
	style="font-family:Helvetica;font-weight:normal;font-style:normal;font-size:10px">100</text>
<text x="15.398" y="-700.88" transform="scale(1, -1)"
	style="font-family:Helvetica;font-weight:normal;font-style:normal;font-size:10px">150</text>
<path d="M34.861,38.448L42.861,38.448" style="fill:none;stroke:#000000;stroke-width:0.5" />
<path d="M34.861,260.82L42.861,260.82" style="fill:none;stroke:#000000;stroke-width:0.5" />
<path d="M34.861,483.2L42.861,483.2" style="fill:none;stroke:#000000;stroke-width:0.5" />
<path d="M34.861,705.58L42.861,705.58" style="fill:none;stroke:#000000;stroke-width:0.5" />
<path d="M38.861,82.923L42.861,82.923" style="fill:none;stroke:#000000;stroke-width:0.5" />
<path d="M38.861,127.4L42.861,127.4" style="fill:none;stroke:#000000;stroke-width:0.5" />
<path d="M38.861,171.87L42.861,171.87" style="fill:none;stroke:#000000;stroke-width:0.5" />
<path d="M38.861,216.35L42.861,216.35" style="fill:none;stroke:#000000;stroke-width:0.5" />
<path d="M38.861,305.3L42.861,305.3" style="fill:none;stroke:#000000;stroke-width:0.5" />
<path d="M38.861,349.77L42.861,349.77" style="fill:none;stroke:#000000;stroke-width:0.5" />
<path d="M38.861,394.25L42.861,394.25" style="fill:none;stroke:#000000;stroke-width:0.5" />
<path d="M38.861,438.72L42.861,438.72" style="fill:none;stroke:#000000;stroke-width:0.5" />
<path d="M38.861,527.68L42.861,527.68" style="fill:none;stroke:#000000;stroke-width:0.5" />
<path d="M38.861,572.15L42.861,572.15" style="fill:none;stroke:#000000;stroke-width:0.5" />
<path d="M38.861,616.63L42.861,616.63" style="fill:none;stroke:#000000;stroke-width:0.5" />
<path d="M38.861,661.1L42.861,661.1" style="fill:none;stroke:#000000;stroke-width:0.5" />
<path d="M42.861,38.448L42.861,730.04" style="fill:none;stroke:#000000;stroke-width:0.5" />
<path d="M48.667,491.9L48.667,491.9L48.667,301.05L177.4,301.05L177.4,179.1L238.76,179.1L238.76,141.85L298.77,141.85L298.77,100.71L350.33,100.71L350.33,69.581L402.19,69.581L402.19,40.672L406.9,40.672L406.9,40.672L402.19,40.672L402.19,45.12L406.9,45.12L406.9,45.12L402.19,45.12L402.19,49.567L406.9,49.567L406.9,49.567L402.19,49.567L402.19,54.015L406.9,54.015L406.9,54.015L402.19,54.015L402.19,58.462L406.9,58.462L406.9,58.462L402.19,58.462L402.19,62.91L406.9,62.91L406.9,62.91L402.19,62.91L402.19,67.357L406.9,67.357L406.9,67.357L402.19,67.357L402.19,71.805L406.9,71.805L406.9,71.805L402.19,71.805L402.19,76.252L406.9,76.252L406.9,76.252L402.19,76.252L402.19,80.7L406.9,80.7L406.9,80.7L402.19,80.7L402.19,85.147L406.9,85.147L406.9,85.147L402.19,85.147L402.19,89.595L406.9,89.595L406.9,89.595L402.19,89.595L402.19,94.042L406.9,94.042L406.9,94.042L402.19,94.042L402.19,98.49L406.9,98.49L406.9,98.49L402.19,98.49L402.19,69.581L350.33,69.581L350.33,131.85L402.19,131.85L402.19,102.94L406.9,102.94L406.9,102.94L402.19,102.94L402.19,107.38L406.9,107.38L406.9,107.38L402.19,107.38L402.19,111.83L406.9,111.83L406.9,111.83L402.19,111.83L402.19,116.28L406.9,116.28L406.9,116.28L402.19,116.28L402.19,120.73L406.9,120.73L406.9,120.73L402.19,120.73L402.19,125.17L406.9,125.17L406.9,125.17L402.19,125.17L402.19,129.62L406.9,129.62L406.9,129.62L402.19,129.62L402.19,134.07L406.9,134.07L406.9,134.07L402.19,134.07L402.19,138.52L406.9,138.52L406.9,138.52L402.19,138.52L402.19,142.96L406.9,142.96L406.9,142.96L402.19,142.96L402.19,147.41L406.9,147.41L406.9,147.41L402.19,147.41L402.19,151.86L406.9,151.86L406.9,151.86L402.19,151.86L402.19,156.31L406.9,156.31L406.9,156.31L402.19,156.31L402.19,160.75L406.9,160.75L406.9,160.75L402.19,160.75L402.19,131.85L350.33,131.85L350.33,100.71L298.77,100.71L298.77,182.99L350.33,182.99L350.33,165.2L355.04,165.2L355.04,165.2L350.33,165.2L350.33,169.65L355.04,169.65L355.04,169.65L350.33,169.65L350.33,174.1L355.04,174.1L355.04,174.1L350.33,174.1L350.33,178.55L355.04,178.55L355.04,178.55L350.33,178.55L350.33,182.99L355.04,182.99L355.04,182.99L350.33,182.99L350.33,187.44L355.04,187.44L355.04,187.44L350.33,187.44L350.33,191.89L355.04,191.89L355.04,191.89L350.33,191.89L350.33,196.34L355.04,196.34L355.04,196.34L350.33,196.34L350.33,200.78L355.04,200.78L355.04,200.78L350.33,200.78L350.33,182.99L298.77,182.99L298.77,141.85L238.76,141.85L238.76,216.35L298.77,216.35L298.77,205.23L303.48,205.23L303.48,205.23L298.77,205.23L298.77,209.68L303.48,209.68L303.48,209.68L298.77,209.68L298.77,214.13L303.48,214.13L303.48,214.13L298.77,214.13L298.77,218.57L303.48,218.57L303.48,218.57L298.77,218.57L298.77,223.02L303.48,223.02L303.48,223.02L298.77,223.02L298.77,227.47L303.48,227.47L303.48,227.47L298.77,227.47L298.77,216.35L238.76,216.35L238.76,179.1L177.4,179.1L177.4,423L238.76,423L238.76,393.94L297.87,393.94L297.87,366.94L354.34,366.94L354.34,339.63L411.45,339.63L411.45,313.92L468.98,313.92L468.98,289.18L524.13,289.18L524.13,266.38L576.84,266.38L576.84,249.71L627.3,249.71L627.3,231.92L632.01,231.92L632.01,231.92L627.3,231.92L627.3,236.36L632.01,236.36L632.01,236.36L627.3,236.36L627.3,240.81L632.01,240.81L632.01,240.81L627.3,240.81L627.3,245.26L632.01,245.26L632.01,245.26L627.3,245.26L627.3,249.71L632.01,249.71L632.01,249.71L627.3,249.71L627.3,254.15L632.01,254.15L632.01,254.15L627.3,254.15L627.3,258.6L632.01,258.6L632.01,258.6L627.3,258.6L627.3,263.05L632.01,263.05L632.01,263.05L627.3,263.05L627.3,267.5L632.01,267.5L632.01,267.5L627.3,267.5L627.3,249.71L576.84,249.71L576.84,283.06L627.3,283.06L627.3,271.94L632.01,271.94L632.01,271.94L627.3,271.94L627.3,276.39L632.01,276.39L632.01,276.39L627.3,276.39L627.3,280.84L632.01,280.84L632.01,280.84L627.3,280.84L627.3,285.29L632.01,285.29L632.01,285.29L627.3,285.29L627.3,289.73L632.01,289.73L632.01,289.73L627.3,289.73L627.3,294.18L632.01,294.18L632.01,294.18L627.3,294.18L627.3,283.06L576.84,283.06L576.84,266.38L524.13,266.38L524.13,311.97L576.84,311.97L576.84,298.63L581.55,298.63L581.55,298.63L576.84,298.63L576.84,303.08L581.55,303.08L581.55,303.08L576.84,303.08L576.84,307.52L581.55,307.52L581.55,307.52L576.84,307.52L576.84,311.97L581.55,311.97L581.55,311.97L576.84,311.97L576.84,316.42L581.55,316.42L581.55,316.42L576.84,316.42L576.84,320.87L581.55,320.87L581.55,320.87L576.84,320.87L576.84,325.31L581.55,325.31L581.55,325.31L576.84,325.31L576.84,311.97L524.13,311.97L524.13,289.18L468.98,289.18L468.98,338.66L524.13,338.66L524.13,329.76L528.84,329.76L528.84,329.76L524.13,329.76L524.13,334.21L528.84,334.21L528.84,334.21L524.13,334.21L524.13,338.66L528.84,338.66L528.84,338.66L524.13,338.66L524.13,343.1L528.84,343.1L528.84,343.1L524.13,343.1L524.13,347.55L528.84,347.55L528.84,347.55L524.13,347.55L524.13,338.66L468.98,338.66L468.98,313.92L411.45,313.92L411.45,365.34L468.98,365.34L468.98,352L473.69,352L473.69,352L468.98,352L468.98,356.45L473.69,356.45L473.69,356.45L468.98,356.45L468.98,360.89L473.69,360.89L473.69,360.89L468.98,360.89L468.98,365.34L473.69,365.34L473.69,365.34L468.98,365.34L468.98,369.79L473.69,369.79L473.69,369.79L468.98,369.79L468.98,374.24L473.69,374.24L473.69,374.24L468.98,374.24L468.98,378.68L473.69,378.68L473.69,378.68L468.98,378.68L468.98,365.34L411.45,365.34L411.45,339.63L354.34,339.63L354.34,394.25L411.45,394.25L411.45,383.13L416.16,383.13L416.16,383.13L411.45,383.13L411.45,387.58L416.16,387.58L416.16,387.58L411.45,387.58L411.45,392.03L416.16,392.03L416.16,392.03L411.45,392.03L411.45,396.47L416.16,396.47L416.16,396.47L411.45,396.47L411.45,400.92L416.16,400.92L416.16,400.92L411.45,400.92L411.45,405.37L416.16,405.37L416.16,405.37L411.45,405.37L411.45,394.25L354.34,394.25L354.34,366.94L297.87,366.94L297.87,420.93L354.34,420.93L354.34,409.82L359.05,409.82L359.05,409.82L354.34,409.82L354.34,414.26L359.05,414.26L359.05,414.26L354.34,414.26L354.34,418.71L359.05,418.71L359.05,418.71L354.34,418.71L354.34,423.16L359.05,423.16L359.05,423.16L354.34,423.16L354.34,427.61L359.05,427.61L359.05,427.61L354.34,427.61L354.34,432.05L359.05,432.05L359.05,432.05L354.34,432.05L354.34,420.93L297.87,420.93L297.87,393.94L238.76,393.94L238.76,452.07L297.87,452.07L297.87,436.5L302.58,436.5L302.58,436.5L297.87,436.5L297.87,440.95L302.58,440.95L302.58,440.95L297.87,440.95L297.87,445.4L302.58,445.4L302.58,445.4L297.87,445.4L297.87,449.84L302.58,449.84L302.58,449.84L297.87,449.84L297.87,454.29L302.58,454.29L302.58,454.29L297.87,454.29L297.87,458.74L302.58,458.74L302.58,458.74L297.87,458.74L297.87,463.19L302.58,463.19L302.58,463.19L297.87,463.19L297.87,467.63L302.58,467.63L302.58,467.63L297.87,467.63L297.87,452.07L238.76,452.07L238.76,423L177.4,423L177.4,301.05L48.667,301.05L48.667,682.75L177.4,682.75L177.4,651.02L233.85,651.02L233.85,618.71L285.35,618.71L285.35,580.77L332.74,580.77L332.74,547.13L381.92,547.13L381.92,522.12L427.87,522.12L427.87,498.77L472.78,498.77L472.78,483.2L515,483.2L515,472.08L519.71,472.08L519.71,472.08L515,472.08L515,476.53L519.71,476.53L519.71,476.53L515,476.53L515,480.98L519.71,480.98L519.71,480.98L515,480.98L515,485.42L519.71,485.42L519.71,485.42L515,485.42L515,489.87L519.71,489.87L519.71,489.87L515,489.87L515,494.32L519.71,494.32L519.71,494.32L515,494.32L515,483.2L472.78,483.2L472.78,514.33L515,514.33L515,498.77L519.71,498.77L519.71,498.77L515,498.77L515,503.21L519.71,503.21L519.71,503.21L515,503.21L515,507.66L519.71,507.66L519.71,507.66L515,507.66L515,512.11L519.71,512.11L519.71,512.11L515,512.11L515,516.56L519.71,516.56L519.71,516.56L515,516.56L515,521L519.71,521L519.71,521L515,521L515,525.45L519.71,525.45L519.71,525.45L515,525.45L515,529.9L519.71,529.9L519.71,529.9L515,529.9L515,514.33L472.78,514.33L472.78,498.77L427.87,498.77L427.87,545.47L472.78,545.47L472.78,534.35L477.49,534.35L477.49,534.35L472.78,534.35L472.78,538.79L477.49,538.79L477.49,538.79L472.78,538.79L472.78,543.24L477.49,543.24L477.49,543.24L472.78,543.24L472.78,547.69L477.49,547.69L477.49,547.69L472.78,547.69L472.78,552.14L477.49,552.14L477.49,552.14L472.78,552.14L472.78,556.58L477.49,556.58L477.49,556.58L472.78,556.58L472.78,545.47L427.87,545.47L427.87,522.12L381.92,522.12L381.92,572.15L427.87,572.15L427.87,561.03L432.58,561.03L432.58,561.03L427.87,561.03L427.87,565.48L432.58,565.48L432.58,565.48L427.87,565.48L427.87,569.93L432.58,569.93L432.58,569.93L427.87,569.93L427.87,574.37L432.58,574.37L432.58,574.37L427.87,574.37L427.87,578.82L432.58,578.82L432.58,578.82L427.87,578.82L427.87,583.27L432.58,583.27L432.58,583.27L427.87,583.27L427.87,572.15L381.92,572.15L381.92,547.13L332.74,547.13L332.74,614.4L381.92,614.4L381.92,587.72L386.63,587.72L386.63,587.72L381.92,587.72L381.92,592.16L386.63,592.16L386.63,592.16L381.92,592.16L381.92,596.61L386.63,596.61L386.63,596.61L381.92,596.61L381.92,601.06L386.63,601.06L386.63,601.06L381.92,601.06L381.92,605.51L386.63,605.51L386.63,605.51L381.92,605.51L381.92,609.95L386.63,609.95L386.63,609.95L381.92,609.95L381.92,614.4L386.63,614.4L386.63,614.4L381.92,614.4L381.92,618.85L386.63,618.85L386.63,618.85L381.92,618.85L381.92,623.3L386.63,623.3L386.63,623.3L381.92,623.3L381.92,627.74L386.63,627.74L386.63,627.74L381.92,627.74L381.92,632.19L386.63,632.19L386.63,632.19L381.92,632.19L381.92,636.64L386.63,636.64L386.63,636.64L381.92,636.64L381.92,641.09L386.63,641.09L386.63,641.09L381.92,641.09L381.92,614.4L332.74,614.4L332.74,580.77L285.35,580.77L285.35,656.65L332.74,656.65L332.74,645.53L337.45,645.53L337.45,645.53L332.74,645.53L332.74,649.98L337.45,649.98L337.45,649.98L332.74,649.98L332.74,654.43L337.45,654.43L337.45,654.43L332.74,654.43L332.74,658.88L337.45,658.88L337.45,658.88L332.74,658.88L332.74,663.32L337.45,663.32L337.45,663.32L332.74,663.32L332.74,667.77L337.45,667.77L337.45,667.77L332.74,667.77L332.74,656.65L285.35,656.65L285.35,618.71L233.85,618.71L233.85,683.34L285.35,683.34L285.35,672.22L290.06,672.22L290.06,672.22L285.35,672.22L285.35,676.67L290.06,676.67L290.06,676.67L285.35,676.67L285.35,681.11L290.06,681.11L290.06,681.11L285.35,681.11L285.35,685.56L290.06,685.56L290.06,685.56L285.35,685.56L285.35,690.01L290.06,690.01L290.06,690.01L285.35,690.01L285.35,694.46L290.06,694.46L290.06,694.46L285.35,694.46L285.35,683.34L233.85,683.34L233.85,651.02L177.4,651.02L177.4,714.47L233.85,714.47L233.85,698.9L238.56,698.9L238.56,698.9L233.85,698.9L233.85,703.35L238.56,703.35L238.56,703.35L233.85,703.35L233.85,707.8L238.56,707.8L238.56,707.8L233.85,707.8L233.85,712.25L238.56,712.25L238.56,712.25L233.85,712.25L233.85,716.69L238.56,716.69L238.56,716.69L233.85,716.69L233.85,721.14L238.56,721.14L238.56,721.14L233.85,721.14L233.85,725.59L238.56,725.59L238.56,725.59L233.85,725.59L233.85,730.04L238.56,730.04L238.56,730.04L233.85,730.04L233.85,714.47L177.4,714.47L177.4,682.75L48.667,682.75L48.667,491.9L48.667,491.9L48.667,491.9" style="fill:none;stroke:#000000" />
<text x="406.9" y="-40.858" transform="scale(1, -1)"
	style="font-family:Times;font-weight:normal;font-style:normal;font-size:10px">motorcycle</text>
<text x="406.9" y="-45.305" transform="scale(1, -1)"
	style="font-family:Times;font-weight:normal;font-style:normal;font-size:10px">motorcycle</text>
<text x="406.9" y="-49.753" transform="scale(1, -1)"
	style="font-family:Times;font-weight:normal;font-style:normal;font-size:10px">motorcycle</text>
<text x="406.9" y="-54.2" transform="scale(1, -1)"
	style="font-family:Times;font-weight:normal;font-style:normal;font-size:10px">motorcycle</text>
<text x="406.9" y="-58.648" transform="scale(1, -1)"
	style="font-family:Times;font-weight:normal;font-style:normal;font-size:10px">motorcycle</text>
<text x="406.9" y="-63.095" transform="scale(1, -1)"
	style="font-family:Times;font-weight:normal;font-style:normal;font-size:10px">motorcycle</text>
<text x="406.9" y="-67.543" transform="scale(1, -1)"
	style="font-family:Times;font-weight:normal;font-style:normal;font-size:10px">motorcycle</text>
<text x="406.9" y="-71.99" transform="scale(1, -1)"
	style="font-family:Times;font-weight:normal;font-style:normal;font-size:10px">motorcycle</text>
<text x="406.9" y="-76.438" transform="scale(1, -1)"
	style="font-family:Times;font-weight:normal;font-style:normal;font-size:10px">motorcycle</text>
<text x="406.9" y="-80.885" transform="scale(1, -1)"
	style="font-family:Times;font-weight:normal;font-style:normal;font-size:10px">motorcycle</text>
<text x="406.9" y="-85.333" transform="scale(1, -1)"
	style="font-family:Times;font-weight:normal;font-style:normal;font-size:10px">motorcycle</text>
<text x="406.9" y="-89.78" transform="scale(1, -1)"
	style="font-family:Times;font-weight:normal;font-style:normal;font-size:10px">motorcycle</text>
<text x="406.9" y="-94.228" transform="scale(1, -1)"
	style="font-family:Times;font-weight:normal;font-style:normal;font-size:10px">motorcycle</text>
<text x="406.9" y="-98.675" transform="scale(1, -1)"
	style="font-family:Times;font-weight:normal;font-style:normal;font-size:10px">motorcycle</text>
<text x="406.9" y="-103.12" transform="scale(1, -1)"
	style="font-family:Times;font-weight:normal;font-style:normal;font-size:10px">car</text>
<text x="406.9" y="-107.57" transform="scale(1, -1)"
	style="font-family:Times;font-weight:normal;font-style:normal;font-size:10px">car</text>
<text x="406.9" y="-112.02" transform="scale(1, -1)"
	style="font-family:Times;font-weight:normal;font-style:normal;font-size:10px">car</text>
<text x="406.9" y="-116.47" transform="scale(1, -1)"
	style="font-family:Times;font-weight:normal;font-style:normal;font-size:10px">car</text>
<text x="406.9" y="-120.91" transform="scale(1, -1)"
	style="font-family:Times;font-weight:normal;font-style:normal;font-size:10px">car</text>
<text x="406.9" y="-125.36" transform="scale(1, -1)"
	style="font-family:Times;font-weight:normal;font-style:normal;font-size:10px">car</text>
<text x="406.9" y="-129.81" transform="scale(1, -1)"
	style="font-family:Times;font-weight:normal;font-style:normal;font-size:10px">car</text>
<text x="406.9" y="-134.26" transform="scale(1, -1)"
	style="font-family:Times;font-weight:normal;font-style:normal;font-size:10px">car</text>
<text x="406.9" y="-138.7" transform="scale(1, -1)"
	style="font-family:Times;font-weight:normal;font-style:normal;font-size:10px">car</text>
<text x="406.9" y="-143.15" transform="scale(1, -1)"
	style="font-family:Times;font-weight:normal;font-style:normal;font-size:10px">car</text>
<text x="406.9" y="-147.6" transform="scale(1, -1)"
	style="font-family:Times;font-weight:normal;font-style:normal;font-size:10px">car</text>
<text x="406.9" y="-152.05" transform="scale(1, -1)"
	style="font-family:Times;font-weight:normal;font-style:normal;font-size:10px">car</text>
<text x="406.9" y="-156.49" transform="scale(1, -1)"
	style="font-family:Times;font-weight:normal;font-style:normal;font-size:10px">car</text>
<text x="406.9" y="-160.94" transform="scale(1, -1)"
	style="font-family:Times;font-weight:normal;font-style:normal;font-size:10px">car</text>
<text x="355.04" y="-165.39" transform="scale(1, -1)"
	style="font-family:Times;font-weight:normal;font-style:normal;font-size:10px">heavycannon</text>
<text x="355.04" y="-169.84" transform="scale(1, -1)"
	style="font-family:Times;font-weight:normal;font-style:normal;font-size:10px">heavycannon</text>
<text x="355.04" y="-174.28" transform="scale(1, -1)"
	style="font-family:Times;font-weight:normal;font-style:normal;font-size:10px">heavycannon</text>
<text x="355.04" y="-178.73" transform="scale(1, -1)"
	style="font-family:Times;font-weight:normal;font-style:normal;font-size:10px">heavycannon</text>
<text x="355.04" y="-183.18" transform="scale(1, -1)"
	style="font-family:Times;font-weight:normal;font-style:normal;font-size:10px">heavycannon</text>
<text x="355.04" y="-187.63" transform="scale(1, -1)"
	style="font-family:Times;font-weight:normal;font-style:normal;font-size:10px">heavycannon</text>
<text x="355.04" y="-192.07" transform="scale(1, -1)"
	style="font-family:Times;font-weight:normal;font-style:normal;font-size:10px">heavycannon</text>
<text x="355.04" y="-196.52" transform="scale(1, -1)"
	style="font-family:Times;font-weight:normal;font-style:normal;font-size:10px">heavycannon</text>
<text x="355.04" y="-200.97" transform="scale(1, -1)"
	style="font-family:Times;font-weight:normal;font-style:normal;font-size:10px">heavycannon</text>
<text x="303.48" y="-205.42" transform="scale(1, -1)"
	style="font-family:Times;font-weight:normal;font-style:normal;font-size:10px">stapler</text>
<text x="303.48" y="-209.86" transform="scale(1, -1)"
	style="font-family:Times;font-weight:normal;font-style:normal;font-size:10px">stapler</text>
<text x="303.48" y="-214.31" transform="scale(1, -1)"
	style="font-family:Times;font-weight:normal;font-style:normal;font-size:10px">stapler</text>
<text x="303.48" y="-218.76" transform="scale(1, -1)"
	style="font-family:Times;font-weight:normal;font-style:normal;font-size:10px">stapler</text>
<text x="303.48" y="-223.21" transform="scale(1, -1)"
	style="font-family:Times;font-weight:normal;font-style:normal;font-size:10px">stapler</text>
<text x="303.48" y="-227.65" transform="scale(1, -1)"
	style="font-family:Times;font-weight:normal;font-style:normal;font-size:10px">stapler</text>
<text x="632.01" y="-232.1" transform="scale(1, -1)"
	style="font-family:Times;font-weight:normal;font-style:normal;font-size:10px">slrcamera</text>
<text x="632.01" y="-236.55" transform="scale(1, -1)"
	style="font-family:Times;font-weight:normal;font-style:normal;font-size:10px">slrcamera</text>
<text x="632.01" y="-241" transform="scale(1, -1)"
	style="font-family:Times;font-weight:normal;font-style:normal;font-size:10px">slrcamera</text>
<text x="632.01" y="-245.44" transform="scale(1, -1)"
	style="font-family:Times;font-weight:normal;font-style:normal;font-size:10px">slrcamera</text>
<text x="632.01" y="-249.89" transform="scale(1, -1)"
	style="font-family:Times;font-weight:normal;font-style:normal;font-size:10px">slrcamera</text>
<text x="632.01" y="-254.34" transform="scale(1, -1)"
	style="font-family:Times;font-weight:normal;font-style:normal;font-size:10px">slrcamera</text>
<text x="632.01" y="-258.79" transform="scale(1, -1)"
	style="font-family:Times;font-weight:normal;font-style:normal;font-size:10px">slrcamera</text>
<text x="632.01" y="-263.23" transform="scale(1, -1)"
	style="font-family:Times;font-weight:normal;font-style:normal;font-size:10px">slrcamera</text>
<text x="632.01" y="-267.68" transform="scale(1, -1)"
	style="font-family:Times;font-weight:normal;font-style:normal;font-size:10px">slrcamera</text>
<text x="632.01" y="-272.13" transform="scale(1, -1)"
	style="font-family:Times;font-weight:normal;font-style:normal;font-size:10px">donut</text>
<text x="632.01" y="-276.58" transform="scale(1, -1)"
	style="font-family:Times;font-weight:normal;font-style:normal;font-size:10px">donut</text>
<text x="632.01" y="-281.02" transform="scale(1, -1)"
	style="font-family:Times;font-weight:normal;font-style:normal;font-size:10px">donut</text>
<text x="632.01" y="-285.47" transform="scale(1, -1)"
	style="font-family:Times;font-weight:normal;font-style:normal;font-size:10px">donut</text>
<text x="632.01" y="-289.92" transform="scale(1, -1)"
	style="font-family:Times;font-weight:normal;font-style:normal;font-size:10px">donut</text>
<text x="632.01" y="-294.37" transform="scale(1, -1)"
	style="font-family:Times;font-weight:normal;font-style:normal;font-size:10px">donut</text>
<text x="581.55" y="-298.81" transform="scale(1, -1)"
	style="font-family:Times;font-weight:normal;font-style:normal;font-size:10px">fish</text>
<text x="581.55" y="-303.26" transform="scale(1, -1)"
	style="font-family:Times;font-weight:normal;font-style:normal;font-size:10px">fish</text>
<text x="581.55" y="-307.71" transform="scale(1, -1)"
	style="font-family:Times;font-weight:normal;font-style:normal;font-size:10px">fish</text>
<text x="581.55" y="-312.16" transform="scale(1, -1)"
	style="font-family:Times;font-weight:normal;font-style:normal;font-size:10px">fish</text>
<text x="581.55" y="-316.6" transform="scale(1, -1)"
	style="font-family:Times;font-weight:normal;font-style:normal;font-size:10px">fish</text>
<text x="581.55" y="-321.05" transform="scale(1, -1)"
	style="font-family:Times;font-weight:normal;font-style:normal;font-size:10px">fish</text>
<text x="581.55" y="-325.5" transform="scale(1, -1)"
	style="font-family:Times;font-weight:normal;font-style:normal;font-size:10px">fish</text>
<text x="528.84" y="-329.95" transform="scale(1, -1)"
	style="font-family:Times;font-weight:normal;font-style:normal;font-size:10px">elephant</text>
<text x="528.84" y="-334.39" transform="scale(1, -1)"
	style="font-family:Times;font-weight:normal;font-style:normal;font-size:10px">elephant</text>
<text x="528.84" y="-338.84" transform="scale(1, -1)"
	style="font-family:Times;font-weight:normal;font-style:normal;font-size:10px">elephant</text>
<text x="528.84" y="-343.29" transform="scale(1, -1)"
	style="font-family:Times;font-weight:normal;font-style:normal;font-size:10px">elephant</text>
<text x="528.84" y="-347.74" transform="scale(1, -1)"
	style="font-family:Times;font-weight:normal;font-style:normal;font-size:10px">elephant</text>
<text x="473.69" y="-352.18" transform="scale(1, -1)"
	style="font-family:Times;font-weight:normal;font-style:normal;font-size:10px">piano</text>
<text x="473.69" y="-356.63" transform="scale(1, -1)"
	style="font-family:Times;font-weight:normal;font-style:normal;font-size:10px">piano</text>
<text x="473.69" y="-361.08" transform="scale(1, -1)"
	style="font-family:Times;font-weight:normal;font-style:normal;font-size:10px">piano</text>
<text x="473.69" y="-365.53" transform="scale(1, -1)"
	style="font-family:Times;font-weight:normal;font-style:normal;font-size:10px">piano</text>
<text x="473.69" y="-369.97" transform="scale(1, -1)"
	style="font-family:Times;font-weight:normal;font-style:normal;font-size:10px">piano</text>
<text x="473.69" y="-374.42" transform="scale(1, -1)"
	style="font-family:Times;font-weight:normal;font-style:normal;font-size:10px">piano</text>
<text x="473.69" y="-378.87" transform="scale(1, -1)"
	style="font-family:Times;font-weight:normal;font-style:normal;font-size:10px">piano</text>
<text x="416.16" y="-383.32" transform="scale(1, -1)"
	style="font-family:Times;font-weight:normal;font-style:normal;font-size:10px">handgun</text>
<text x="416.16" y="-387.76" transform="scale(1, -1)"
	style="font-family:Times;font-weight:normal;font-style:normal;font-size:10px">handgun</text>
<text x="416.16" y="-392.21" transform="scale(1, -1)"
	style="font-family:Times;font-weight:normal;font-style:normal;font-size:10px">handgun</text>
<text x="416.16" y="-396.66" transform="scale(1, -1)"
	style="font-family:Times;font-weight:normal;font-style:normal;font-size:10px">handgun</text>
<text x="416.16" y="-401.11" transform="scale(1, -1)"
	style="font-family:Times;font-weight:normal;font-style:normal;font-size:10px">handgun</text>
<text x="416.16" y="-405.55" transform="scale(1, -1)"
	style="font-family:Times;font-weight:normal;font-style:normal;font-size:10px">handgun</text>
<text x="359.05" y="-410" transform="scale(1, -1)"
	style="font-family:Times;font-weight:normal;font-style:normal;font-size:10px">doorknob</text>
<text x="359.05" y="-414.45" transform="scale(1, -1)"
	style="font-family:Times;font-weight:normal;font-style:normal;font-size:10px">doorknob</text>
<text x="359.05" y="-418.9" transform="scale(1, -1)"
	style="font-family:Times;font-weight:normal;font-style:normal;font-size:10px">doorknob</text>
<text x="359.05" y="-423.34" transform="scale(1, -1)"
	style="font-family:Times;font-weight:normal;font-style:normal;font-size:10px">doorknob</text>
<text x="359.05" y="-427.79" transform="scale(1, -1)"
	style="font-family:Times;font-weight:normal;font-style:normal;font-size:10px">doorknob</text>
<text x="359.05" y="-432.24" transform="scale(1, -1)"
	style="font-family:Times;font-weight:normal;font-style:normal;font-size:10px">doorknob</text>
<text x="302.58" y="-436.69" transform="scale(1, -1)"
	style="font-family:Times;font-weight:normal;font-style:normal;font-size:10px">chair</text>
<text x="302.58" y="-441.13" transform="scale(1, -1)"
	style="font-family:Times;font-weight:normal;font-style:normal;font-size:10px">chair</text>
<text x="302.58" y="-445.58" transform="scale(1, -1)"
	style="font-family:Times;font-weight:normal;font-style:normal;font-size:10px">chair</text>
<text x="302.58" y="-450.03" transform="scale(1, -1)"
	style="font-family:Times;font-weight:normal;font-style:normal;font-size:10px">chair</text>
<text x="302.58" y="-454.48" transform="scale(1, -1)"
	style="font-family:Times;font-weight:normal;font-style:normal;font-size:10px">chair</text>
<text x="302.58" y="-458.92" transform="scale(1, -1)"
	style="font-family:Times;font-weight:normal;font-style:normal;font-size:10px">chair</text>
<text x="302.58" y="-463.37" transform="scale(1, -1)"
	style="font-family:Times;font-weight:normal;font-style:normal;font-size:10px">chair</text>
<text x="302.58" y="-467.82" transform="scale(1, -1)"
	style="font-family:Times;font-weight:normal;font-style:normal;font-size:10px">chair</text>
<text x="519.71" y="-472.27" transform="scale(1, -1)"
	style="font-family:Times;font-weight:normal;font-style:normal;font-size:10px">trafficcone</text>
<text x="519.71" y="-476.71" transform="scale(1, -1)"
	style="font-family:Times;font-weight:normal;font-style:normal;font-size:10px">trafficcone</text>
<text x="519.71" y="-481.16" transform="scale(1, -1)"
	style="font-family:Times;font-weight:normal;font-style:normal;font-size:10px">trafficcone</text>
<text x="519.71" y="-485.61" transform="scale(1, -1)"
	style="font-family:Times;font-weight:normal;font-style:normal;font-size:10px">trafficcone</text>
<text x="519.71" y="-490.06" transform="scale(1, -1)"
	style="font-family:Times;font-weight:normal;font-style:normal;font-size:10px">trafficcone</text>
<text x="519.71" y="-494.5" transform="scale(1, -1)"
	style="font-family:Times;font-weight:normal;font-style:normal;font-size:10px">trafficcone</text>
<text x="519.71" y="-498.95" transform="scale(1, -1)"
	style="font-family:Times;font-weight:normal;font-style:normal;font-size:10px">layercake</text>
<text x="519.71" y="-503.4" transform="scale(1, -1)"
	style="font-family:Times;font-weight:normal;font-style:normal;font-size:10px">layercake</text>
<text x="519.71" y="-507.85" transform="scale(1, -1)"
	style="font-family:Times;font-weight:normal;font-style:normal;font-size:10px">layercake</text>
<text x="519.71" y="-512.29" transform="scale(1, -1)"
	style="font-family:Times;font-weight:normal;font-style:normal;font-size:10px">layercake</text>
<text x="519.71" y="-516.74" transform="scale(1, -1)"
	style="font-family:Times;font-weight:normal;font-style:normal;font-size:10px">layercake</text>
<text x="519.71" y="-521.19" transform="scale(1, -1)"
	style="font-family:Times;font-weight:normal;font-style:normal;font-size:10px">layercake</text>
<text x="519.71" y="-525.64" transform="scale(1, -1)"
	style="font-family:Times;font-weight:normal;font-style:normal;font-size:10px">layercake</text>
<text x="519.71" y="-530.08" transform="scale(1, -1)"
	style="font-family:Times;font-weight:normal;font-style:normal;font-size:10px">layercake</text>
<text x="477.49" y="-534.53" transform="scale(1, -1)"
	style="font-family:Times;font-weight:normal;font-style:normal;font-size:10px">banana</text>
<text x="477.49" y="-538.98" transform="scale(1, -1)"
	style="font-family:Times;font-weight:normal;font-style:normal;font-size:10px">banana</text>
<text x="477.49" y="-543.43" transform="scale(1, -1)"
	style="font-family:Times;font-weight:normal;font-style:normal;font-size:10px">banana</text>
<text x="477.49" y="-547.87" transform="scale(1, -1)"
	style="font-family:Times;font-weight:normal;font-style:normal;font-size:10px">banana</text>
<text x="477.49" y="-552.32" transform="scale(1, -1)"
	style="font-family:Times;font-weight:normal;font-style:normal;font-size:10px">banana</text>
<text x="477.49" y="-556.77" transform="scale(1, -1)"
	style="font-family:Times;font-weight:normal;font-style:normal;font-size:10px">banana</text>
<text x="432.58" y="-561.22" transform="scale(1, -1)"
	style="font-family:Times;font-weight:normal;font-style:normal;font-size:10px">trex</text>
<text x="432.58" y="-565.66" transform="scale(1, -1)"
	style="font-family:Times;font-weight:normal;font-style:normal;font-size:10px">trex</text>
<text x="432.58" y="-570.11" transform="scale(1, -1)"
	style="font-family:Times;font-weight:normal;font-style:normal;font-size:10px">trex</text>
<text x="432.58" y="-574.56" transform="scale(1, -1)"
	style="font-family:Times;font-weight:normal;font-style:normal;font-size:10px">trex</text>
<text x="432.58" y="-579.01" transform="scale(1, -1)"
	style="font-family:Times;font-weight:normal;font-style:normal;font-size:10px">trex</text>
<text x="432.58" y="-583.45" transform="scale(1, -1)"
	style="font-family:Times;font-weight:normal;font-style:normal;font-size:10px">trex</text>
<text x="386.63" y="-587.9" transform="scale(1, -1)"
	style="font-family:Times;font-weight:normal;font-style:normal;font-size:10px">person</text>
<text x="386.63" y="-592.35" transform="scale(1, -1)"
	style="font-family:Times;font-weight:normal;font-style:normal;font-size:10px">person</text>
<text x="386.63" y="-596.8" transform="scale(1, -1)"
	style="font-family:Times;font-weight:normal;font-style:normal;font-size:10px">person</text>
<text x="386.63" y="-601.24" transform="scale(1, -1)"
	style="font-family:Times;font-weight:normal;font-style:normal;font-size:10px">person</text>
<text x="386.63" y="-605.69" transform="scale(1, -1)"
	style="font-family:Times;font-weight:normal;font-style:normal;font-size:10px">person</text>
<text x="386.63" y="-610.14" transform="scale(1, -1)"
	style="font-family:Times;font-weight:normal;font-style:normal;font-size:10px">person</text>
<text x="386.63" y="-614.59" transform="scale(1, -1)"
	style="font-family:Times;font-weight:normal;font-style:normal;font-size:10px">person</text>
<text x="386.63" y="-619.03" transform="scale(1, -1)"
	style="font-family:Times;font-weight:normal;font-style:normal;font-size:10px">person</text>
<text x="386.63" y="-623.48" transform="scale(1, -1)"
	style="font-family:Times;font-weight:normal;font-style:normal;font-size:10px">person</text>
<text x="386.63" y="-627.93" transform="scale(1, -1)"
	style="font-family:Times;font-weight:normal;font-style:normal;font-size:10px">person</text>
<text x="386.63" y="-632.38" transform="scale(1, -1)"
	style="font-family:Times;font-weight:normal;font-style:normal;font-size:10px">person</text>
<text x="386.63" y="-636.82" transform="scale(1, -1)"
	style="font-family:Times;font-weight:normal;font-style:normal;font-size:10px">person</text>
<text x="386.63" y="-641.27" transform="scale(1, -1)"
	style="font-family:Times;font-weight:normal;font-style:normal;font-size:10px">person</text>
<text x="337.45" y="-645.72" transform="scale(1, -1)"
	style="font-family:Times;font-weight:normal;font-style:normal;font-size:10px">guitar</text>
<text x="337.45" y="-650.17" transform="scale(1, -1)"
	style="font-family:Times;font-weight:normal;font-style:normal;font-size:10px">guitar</text>
<text x="337.45" y="-654.61" transform="scale(1, -1)"
	style="font-family:Times;font-weight:normal;font-style:normal;font-size:10px">guitar</text>
<text x="337.45" y="-659.06" transform="scale(1, -1)"
	style="font-family:Times;font-weight:normal;font-style:normal;font-size:10px">guitar</text>
<text x="337.45" y="-663.51" transform="scale(1, -1)"
	style="font-family:Times;font-weight:normal;font-style:normal;font-size:10px">guitar</text>
<text x="337.45" y="-667.96" transform="scale(1, -1)"
	style="font-family:Times;font-weight:normal;font-style:normal;font-size:10px">guitar</text>
<text x="290.06" y="-672.4" transform="scale(1, -1)"
	style="font-family:Times;font-weight:normal;font-style:normal;font-size:10px">sailboat</text>
<text x="290.06" y="-676.85" transform="scale(1, -1)"
	style="font-family:Times;font-weight:normal;font-style:normal;font-size:10px">sailboat</text>
<text x="290.06" y="-681.3" transform="scale(1, -1)"
	style="font-family:Times;font-weight:normal;font-style:normal;font-size:10px">sailboat</text>
<text x="290.06" y="-685.75" transform="scale(1, -1)"
	style="font-family:Times;font-weight:normal;font-style:normal;font-size:10px">sailboat</text>
<text x="290.06" y="-690.2" transform="scale(1, -1)"
	style="font-family:Times;font-weight:normal;font-style:normal;font-size:10px">sailboat</text>
<text x="290.06" y="-694.64" transform="scale(1, -1)"
	style="font-family:Times;font-weight:normal;font-style:normal;font-size:10px">sailboat</text>
<text x="238.56" y="-699.09" transform="scale(1, -1)"
	style="font-family:Times;font-weight:normal;font-style:normal;font-size:10px">tablelamp</text>
<text x="238.56" y="-703.54" transform="scale(1, -1)"
	style="font-family:Times;font-weight:normal;font-style:normal;font-size:10px">tablelamp</text>
<text x="238.56" y="-707.99" transform="scale(1, -1)"
	style="font-family:Times;font-weight:normal;font-style:normal;font-size:10px">tablelamp</text>
<text x="238.56" y="-712.43" transform="scale(1, -1)"
	style="font-family:Times;font-weight:normal;font-style:normal;font-size:10px">tablelamp</text>
<text x="238.56" y="-716.88" transform="scale(1, -1)"
	style="font-family:Times;font-weight:normal;font-style:normal;font-size:10px">tablelamp</text>
<text x="238.56" y="-721.33" transform="scale(1, -1)"
	style="font-family:Times;font-weight:normal;font-style:normal;font-size:10px">tablelamp</text>
<text x="238.56" y="-725.78" transform="scale(1, -1)"
	style="font-family:Times;font-weight:normal;font-style:normal;font-size:10px">tablelamp</text>
<text x="238.56" y="-730.22" transform="scale(1, -1)"
	style="font-family:Times;font-weight:normal;font-style:normal;font-size:10px">tablelamp</text>
<path d="M650.88,733.97L670.88,733.97" style="fill:none;stroke:#000000" />
<text x="639.54" y="-728.33" transform="scale(1, -1)"
	style="font-family:Helvetica;font-weight:normal;font-style:normal;font-size:12px">Y</text>
</g>
</svg>
