<?xml version="1.0"?>
<!-- Generated by SVGo and Plotinum VG -->
<svg width="356.25pt" height="414.75pt" viewBox="0 0 356.25 414.75"
	xmlns="http://www.w3.org/2000/svg"
	xmlns:xlink="http://www.w3.org/1999/xlink">
<g transform="scale(1, -1) translate(0, -414.75)">
<text x="134.43" y="-403.23" transform="scale(1, -1)"
	style="font-family:Helvetica;font-weight:normal;font-style:normal;font-size:12px">Leabra Obj Sum</text>
<text x="176.24" y="-3.8789" transform="scale(1, -1)"
	style="font-family:Helvetica;font-weight:normal;font-style:normal;font-size:12px">X</text>
<text x="33.374" y="-15.599" transform="scale(1, -1)"
	style="font-family:Helvetica;font-weight:normal;font-style:normal;font-size:10px">0.00</text>
<text x="169.82" y="-15.599" transform="scale(1, -1)"
	style="font-family:Helvetica;font-weight:normal;font-style:normal;font-size:10px">2.50</text>
<text x="306.26" y="-15.599" transform="scale(1, -1)"
	style="font-family:Helvetica;font-weight:normal;font-style:normal;font-size:10px">5.00</text>
<path d="M43.105,25.198L43.105,33.198" style="fill:none;stroke:#000000;stroke-width:0.5" />
<path d="M179.55,25.198L179.55,33.198" style="fill:none;stroke:#000000;stroke-width:0.5" />
<path d="M315.99,25.198L315.99,33.198" style="fill:none;stroke:#000000;stroke-width:0.5" />
<path d="M70.394,29.198L70.394,33.198" style="fill:none;stroke:#000000;stroke-width:0.5" />
<path d="M97.683,29.198L97.683,33.198" style="fill:none;stroke:#000000;stroke-width:0.5" />
<path d="M124.97,29.198L124.97,33.198" style="fill:none;stroke:#000000;stroke-width:0.5" />
<path d="M152.26,29.198L152.26,33.198" style="fill:none;stroke:#000000;stroke-width:0.5" />
<path d="M206.84,29.198L206.84,33.198" style="fill:none;stroke:#000000;stroke-width:0.5" />
<path d="M234.13,29.198L234.13,33.198" style="fill:none;stroke:#000000;stroke-width:0.5" />
<path d="M261.41,29.198L261.41,33.198" style="fill:none;stroke:#000000;stroke-width:0.5" />
<path d="M288.7,29.198L288.7,33.198" style="fill:none;stroke:#000000;stroke-width:0.5" />
<path d="M43.105,33.198L317.39,33.198" style="fill:none;stroke:#000000;stroke-width:0.5" />
<g transform="rotate(90)">
<text x="209.99" y="11.52" transform="scale(1, -1)"
	style="font-family:Helvetica;font-weight:normal;font-style:normal;font-size:12px">Y</text>
</g>
<text x="20.96" y="-33.749" transform="scale(1, -1)"
	style="font-family:Helvetica;font-weight:normal;font-style:normal;font-size:10px">0</text>
<text x="20.96" y="-195.79" transform="scale(1, -1)"
	style="font-family:Helvetica;font-weight:normal;font-style:normal;font-size:10px">9</text>
<text x="15.398" y="-357.83" transform="scale(1, -1)"
	style="font-family:Helvetica;font-weight:normal;font-style:normal;font-size:10px">18</text>
<path d="M29.3,38.448L37.3,38.448" style="fill:none;stroke:#000000;stroke-width:0.5" />
<path d="M29.3,200.49L37.3,200.49" style="fill:none;stroke:#000000;stroke-width:0.5" />
<path d="M29.3,362.53L37.3,362.53" style="fill:none;stroke:#000000;stroke-width:0.5" />
<path d="M33.3,119.47L37.3,119.47" style="fill:none;stroke:#000000;stroke-width:0.5" />
<path d="M33.3,281.51L37.3,281.51" style="fill:none;stroke:#000000;stroke-width:0.5" />
<path d="M37.3,38.448L37.3,389.54" style="fill:none;stroke:#000000;stroke-width:0.5" />
<path d="M43.105,271.24L43.105,271.24L43.105,182.77L120.32,182.77L120.32,135.79L176.92,135.79L176.92,107.09L212.21,107.09L212.21,85.71L242.82,85.71L242.82,69.956L272.93,69.956L272.93,56.453L298.66,56.453L298.66,47.451L317.39,47.451L317.39,47.451L298.66,47.451L298.66,65.455L317.39,65.455L317.39,65.455L298.66,65.455L298.66,56.453L272.93,56.453L272.93,83.46L298.66,83.46L298.66,83.46L272.93,83.46L272.93,69.956L242.82,69.956L242.82,101.46L272.93,101.46L272.93,101.46L242.82,101.46L242.82,85.71L212.21,85.71L212.21,128.47L242.82,128.47L242.82,119.47L265.65,119.47L265.65,119.47L242.82,119.47L242.82,137.47L265.65,137.47L265.65,137.47L242.82,137.47L242.82,128.47L212.21,128.47L212.21,107.09L176.92,107.09L176.92,164.48L212.21,164.48L212.21,155.48L237.78,155.48L237.78,155.48L212.21,155.48L212.21,173.48L237.78,173.48L237.78,173.48L212.21,173.48L212.21,164.48L176.92,164.48L176.92,135.79L120.32,135.79L120.32,229.75L176.92,229.75L176.92,213.99L211.19,213.99L211.19,200.49L233.7,200.49L233.7,191.49L253.95,191.49L253.95,191.49L233.7,191.49L233.7,209.49L253.95,209.49L253.95,209.49L233.7,209.49L233.7,200.49L211.19,200.49L211.19,227.5L233.7,227.5L233.7,227.5L211.19,227.5L211.19,213.99L176.92,213.99L176.92,245.5L211.19,245.5L211.19,245.5L176.92,245.5L176.92,229.75L120.32,229.75L120.32,182.77L43.105,182.77L43.105,359.72L120.32,359.72L120.32,329.9L173.92,329.9L173.92,301.76L207.85,301.76L207.85,286.01L238.21,286.01L238.21,272.51L256.81,272.51L256.81,263.51L268.63,263.51L268.63,263.51L256.81,263.51L256.81,281.51L268.63,281.51L268.63,281.51L256.81,281.51L256.81,272.51L238.21,272.51L238.21,299.51L256.81,299.51L256.81,299.51L238.21,299.51L238.21,286.01L207.85,286.01L207.85,317.52L238.21,317.52L238.21,317.52L207.85,317.52L207.85,301.76L173.92,301.76L173.92,358.03L207.85,358.03L207.85,344.53L235.76,344.53L235.76,335.52L259.93,335.52L259.93,335.52L235.76,335.52L235.76,353.53L259.93,353.53L259.93,353.53L235.76,353.53L235.76,344.53L207.85,344.53L207.85,371.53L235.76,371.53L235.76,371.53L207.85,371.53L207.85,358.03L173.92,358.03L173.92,329.9L120.32,329.9L120.32,389.54L173.92,389.54L173.92,389.54L120.32,389.54L120.32,359.72L43.105,359.72L43.105,271.24L43.105,271.24L43.105,271.24" style="fill:none;stroke:#000000" />
<text x="317.39" y="-47.636" transform="scale(1, -1)"
	style="font-family:Times;font-weight:normal;font-style:normal;font-size:10px">slrcamera</text>
<text x="317.39" y="-65.641" transform="scale(1, -1)"
	style="font-family:Times;font-weight:normal;font-style:normal;font-size:10px">donut</text>
<text x="298.66" y="-83.645" transform="scale(1, -1)"
	style="font-family:Times;font-weight:normal;font-style:normal;font-size:10px">fish</text>
<text x="272.93" y="-101.65" transform="scale(1, -1)"
	style="font-family:Times;font-weight:normal;font-style:normal;font-size:10px">piano</text>
<text x="265.65" y="-119.65" transform="scale(1, -1)"
	style="font-family:Times;font-weight:normal;font-style:normal;font-size:10px">elephant</text>
<text x="265.65" y="-137.66" transform="scale(1, -1)"
	style="font-family:Times;font-weight:normal;font-style:normal;font-size:10px">handgun</text>
<text x="237.78" y="-155.66" transform="scale(1, -1)"
	style="font-family:Times;font-weight:normal;font-style:normal;font-size:10px">chair</text>
<text x="237.78" y="-173.67" transform="scale(1, -1)"
	style="font-family:Times;font-weight:normal;font-style:normal;font-size:10px">doorknob</text>
<text x="253.95" y="-191.67" transform="scale(1, -1)"
	style="font-family:Times;font-weight:normal;font-style:normal;font-size:10px">motorcycle</text>
<text x="253.95" y="-209.68" transform="scale(1, -1)"
	style="font-family:Times;font-weight:normal;font-style:normal;font-size:10px">heavycannon</text>
<text x="233.7" y="-227.68" transform="scale(1, -1)"
	style="font-family:Times;font-weight:normal;font-style:normal;font-size:10px">car</text>
<text x="211.19" y="-245.69" transform="scale(1, -1)"
	style="font-family:Times;font-weight:normal;font-style:normal;font-size:10px">stapler</text>
<text x="268.63" y="-263.69" transform="scale(1, -1)"
	style="font-family:Times;font-weight:normal;font-style:normal;font-size:10px">trafficcone</text>
<text x="268.63" y="-281.7" transform="scale(1, -1)"
	style="font-family:Times;font-weight:normal;font-style:normal;font-size:10px">layercake</text>
<text x="256.81" y="-299.7" transform="scale(1, -1)"
	style="font-family:Times;font-weight:normal;font-style:normal;font-size:10px">banana</text>
<text x="238.21" y="-317.7" transform="scale(1, -1)"
	style="font-family:Times;font-weight:normal;font-style:normal;font-size:10px">sailboat</text>
<text x="259.93" y="-335.71" transform="scale(1, -1)"
	style="font-family:Times;font-weight:normal;font-style:normal;font-size:10px">guitar</text>
<text x="259.93" y="-353.71" transform="scale(1, -1)"
	style="font-family:Times;font-weight:normal;font-style:normal;font-size:10px">person</text>
<text x="235.76" y="-371.72" transform="scale(1, -1)"
	style="font-family:Times;font-weight:normal;font-style:normal;font-size:10px">trex</text>
<text x="173.92" y="-389.72" transform="scale(1, -1)"
	style="font-family:Times;font-weight:normal;font-style:normal;font-size:10px">tablelamp</text>
<path d="M336.25,393.47L356.25,393.47" style="fill:none;stroke:#000000" />
<text x="324.91" y="-387.83" transform="scale(1, -1)"
	style="font-family:Helvetica;font-weight:normal;font-style:normal;font-size:12px">Y</text>
</g>
</svg>
