<?xml version="1.0" encoding="UTF-8" standalone="no"?>
<svg
  xmlns="http://www.w3.org/2000/svg" version="1.1"
  width="400px"
  height="400px"
  viewBox="0 0 1000.0 1000.0">
<path stroke="#000000" stroke-width="2" fill="none"
  d="M 251.7,771.9 L 251.7,187.8 L 835.9,187.8 L 835.9,771.9 L 251.7,771.9 "
 />

<g>

<text x="543.8" y="850.8" font-family="Arial" font-size="29.2" fill="#000000" text-anchor="middle">
Layer
</text>

<text x="300.4" y="821.6" font-family="Arial" font-size="29.2" fill="#000000" text-anchor="middle">
V1s
</text>

<text x="397.8" y="821.6" font-family="Arial" font-size="29.2" fill="#000000" text-anchor="middle">
V1hs
</text>

<text x="495.1" y="821.6" font-family="Arial" font-size="29.2" fill="#000000" text-anchor="middle">
V2s
</text>

<text x="592.5" y="821.6" font-family="Arial" font-size="29.2" fill="#000000" text-anchor="middle">
V4s
</text>

<text x="689.8" y="821.6" font-family="Arial" font-size="29.2" fill="#000000" text-anchor="middle">
TEOs
</text>

<text x="787.2" y="821.6" font-family="Arial" font-size="29.2" fill="#000000" text-anchor="middle">
TEs
</text>
<path stroke="#000000" stroke-width="2" fill="none"
  d="M 251.7,771.9 L 835.9,771.9 M 300.4,786.5 L 300.4,757.3 M 397.8,786.5 L 397.8,757.3 M 495.1,786.5 L 495.1,757.3 M 592.5,786.5 L 592.5,757.3 M 689.8,786.5 L 689.8,757.3 M 787.2,786.5 L 787.2,757.3 "
 />
<path stroke="#000000" stroke-width="2" fill="none"
  d="M 251.7,187.8 L 835.9,187.8 M 300.4,202.4 L 300.4,173.2 M 397.8,202.4 L 397.8,173.2 M 495.1,202.4 L 495.1,173.2 M 592.5,202.4 L 592.5,173.2 M 689.8,202.4 L 689.8,173.2 M 787.2,202.4 L 787.2,173.2 "
 />

<text x="178.7" y="479.8" font-family="Arial" font-size="29.2" fill="#0000ff" writing-mode="tb" text-anchor="middle">
TEStd Vs Std Lays
</text>

<text x="231.3" y="783.6" font-family="Arial" font-size="29.2" fill="#0000ff" text-anchor="end">
0
</text>

<text x="231.3" y="672.3" font-family="Arial" font-size="29.2" fill="#0000ff" text-anchor="end">
0.2
</text>

<text x="231.3" y="561.1" font-family="Arial" font-size="29.2" fill="#0000ff" text-anchor="end">
0.4
</text>

<text x="231.3" y="449.8" font-family="Arial" font-size="29.2" fill="#0000ff" text-anchor="end">
0.6
</text>

<text x="231.3" y="338.5" font-family="Arial" font-size="29.2" fill="#0000ff" text-anchor="end">
0.8
</text>

<text x="231.3" y="227.3" font-family="Arial" font-size="29.2" fill="#0000ff" text-anchor="end">
1
</text>
<path stroke="#0000ff" stroke-width="2" fill="none"
  d="M 251.7,771.9 L 251.7,187.8 M 237.1,771.9 L 266.4,771.9 M 237.1,660.6 L 266.4,660.6 M 237.1,549.4 L 266.4,549.4 M 237.1,438.1 L 266.4,438.1 M 237.1,326.9 L 266.4,326.9 M 237.1,215.6 L 266.4,215.6 "
 />
<path stroke="#0000ff" stroke-width="2" fill="none"
  d="M 835.9,771.9 L 835.9,187.8 M 821.3,771.9 L 850.5,771.9 M 821.3,660.6 L 850.5,660.6 M 821.3,549.4 L 850.5,549.4 M 821.3,438.1 L 850.5,438.1 M 821.3,326.9 L 850.5,326.9 M 821.3,215.6 L 850.5,215.6 "
 />

</g>

<g transform="translate(0.0,-643.2)">

<g transform="translate(0.0,-0.0)">
<path stroke="#0000ff" stroke-width="1" fill="none"
  d="M 251.7,771.9 L 286.8,771.9 "
 />

<text x="292.6" y="783.6" font-family="Arial" font-size="23.4" fill="#0000ff" text-anchor="start">
TEStd Vs Std Lays
</text>

</g>

<g transform="translate(263.1,-0.0)">
<path stroke="#218b21" stroke-width="1" fill="none"
  d="M 251.7,771.9 L 286.8,771.9 "
 />

<text x="292.6" y="783.6" font-family="Arial" font-size="23.4" fill="#218b21" text-anchor="start">
TECmp Vs Cmp Lays
</text>

</g>

</g>

<g>
<path stroke="#0000ff" stroke-width="1" fill="none"
  d=""
 />
<path stroke="#000000" stroke-width="1" fill="none"
  d="M 300.4,482.8 
L 397.8,490.7 L 495.1,522.0 L 592.5,478.9 L 689.8,304.5 L 787.2,215.6 "
 />
<path stroke="#0000ff" stroke-width="1" fill="none"
  d="
"
 />
<path stroke="#0000ff" stroke-width="1" fill="none"
  d="M 294.6,477.0 L 300.4,488.7 L 306.3,477.0 L 294.6,477.0 M 391.9,484.9 L 397.8,496.6 L 403.6,484.9 L 391.9,484.9 M 489.3,516.2 L 495.1,527.8 L 501.0,516.2 L 489.3,516.2 M 586.6,473.1 L 592.5,484.8 L 598.3,473.1 L 586.6,473.1 M 684.0,298.7 L 689.8,310.3 L 695.7,298.7 L 684.0,298.7 M 781.4,209.8 L 787.2,221.4 L 793.0,209.8 L 781.4,209.8 "
 />
<path stroke="#0000ff" stroke-width="1" fill="none"
  d="
"
 />
<path stroke="#218b21" stroke-width="1" fill="none"
  d=""
 />
<path stroke="#000000" stroke-width="1" fill="none"
  d="M 300.4,285.5 
L 397.8,280.3 L 495.1,278.9 L 592.5,278.6 L 689.8,244.2 L 787.2,215.6 "
 />
<path stroke="#218b21" stroke-width="1" fill="none"
  d="
"
 />
<path stroke="#218b21" stroke-width="1" fill="none"
  d="M 294.6,285.5 L 306.3,285.5 L 300.4,285.5 L 300.4,291.4 L 300.4,279.7 M 391.9,280.3 L 403.6,280.3 L 397.8,280.3 L 397.8,286.1 L 397.8,274.4 M 489.3,278.9 L 501.0,278.9 L 495.1,278.9 L 495.1,284.7 L 495.1,273.1 M 586.6,278.6 L 598.3,278.6 L 592.5,278.6 L 592.5,284.4 L 592.5,272.7 M 684.0,244.2 L 695.7,244.2 L 689.8,244.2 L 689.8,250.0 L 689.8,238.3 M 781.4,215.6 L 793.0,215.6 L 787.2,215.6 L 787.2,221.4 L 787.2,209.8 "
 />
<path stroke="#218b21" stroke-width="1" fill="none"
  d="
"
 />

</g>
</svg>
