<?xml version="1.0"?>
<!-- Generated by SVGo and Plotinum VG -->
<svg width="419.25pt" height="429pt" viewBox="0 0 419.25 429"
	xmlns="http://www.w3.org/2000/svg"
	xmlns:xlink="http://www.w3.org/1999/xlink">
<g transform="scale(1, -1) translate(0, -429)">
<text x="178.61" y="-417.48" transform="scale(1, -1)"
	style="font-family:Helvetica;font-weight:normal;font-style:normal;font-size:12px">Cluster Plot</text>
<text x="207.74" y="-3.8789" transform="scale(1, -1)"
	style="font-family:Helvetica;font-weight:normal;font-style:normal;font-size:12px">X</text>
<text x="40.325" y="-15.599" transform="scale(1, -1)"
	style="font-family:Helvetica;font-weight:normal;font-style:normal;font-size:10px">0</text>
<text x="184.09" y="-15.599" transform="scale(1, -1)"
	style="font-family:Helvetica;font-weight:normal;font-style:normal;font-size:10px">3</text>
<text x="327.86" y="-15.599" transform="scale(1, -1)"
	style="font-family:Helvetica;font-weight:normal;font-style:normal;font-size:10px">6</text>
<path d="M43.105,25.198L43.105,33.198" style="fill:none;stroke:#000000;stroke-width:0.5" />
<path d="M186.87,25.198L186.87,33.198" style="fill:none;stroke:#000000;stroke-width:0.5" />
<path d="M330.64,25.198L330.64,33.198" style="fill:none;stroke:#000000;stroke-width:0.5" />
<path d="M91.027,29.198L91.027,33.198" style="fill:none;stroke:#000000;stroke-width:0.5" />
<path d="M138.95,29.198L138.95,33.198" style="fill:none;stroke:#000000;stroke-width:0.5" />
<path d="M234.79,29.198L234.79,33.198" style="fill:none;stroke:#000000;stroke-width:0.5" />
<path d="M282.72,29.198L282.72,33.198" style="fill:none;stroke:#000000;stroke-width:0.5" />
<path d="M378.56,29.198L378.56,33.198" style="fill:none;stroke:#000000;stroke-width:0.5" />
<path d="M43.105,33.198L380.39,33.198" style="fill:none;stroke:#000000;stroke-width:0.5" />
<g transform="rotate(90)">
<text x="217.12" y="11.52" transform="scale(1, -1)"
	style="font-family:Helvetica;font-weight:normal;font-style:normal;font-size:12px">Y</text>
</g>
<text x="20.96" y="-33.749" transform="scale(1, -1)"
	style="font-family:Helvetica;font-weight:normal;font-style:normal;font-size:10px">0</text>
<text x="20.96" y="-202.37" transform="scale(1, -1)"
	style="font-family:Helvetica;font-weight:normal;font-style:normal;font-size:10px">9</text>
<text x="15.398" y="-370.98" transform="scale(1, -1)"
	style="font-family:Helvetica;font-weight:normal;font-style:normal;font-size:10px">18</text>
<path d="M29.3,38.448L37.3,38.448" style="fill:none;stroke:#000000;stroke-width:0.5" />
<path d="M29.3,207.07L37.3,207.07" style="fill:none;stroke:#000000;stroke-width:0.5" />
<path d="M29.3,375.68L37.3,375.68" style="fill:none;stroke:#000000;stroke-width:0.5" />
<path d="M33.3,122.76L37.3,122.76" style="fill:none;stroke:#000000;stroke-width:0.5" />
<path d="M33.3,291.38L37.3,291.38" style="fill:none;stroke:#000000;stroke-width:0.5" />
<path d="M37.3,38.448L37.3,403.79" style="fill:none;stroke:#000000;stroke-width:0.5" />
<path d="M43.105,229.09L43.105,229.09L43.105,116.9L126.84,116.9L126.84,92.312L171.09,92.312L171.09,71.235L205.24,71.235L205.24,57.184L231.46,57.184L231.46,47.816L252.75,47.816L252.75,47.816L231.46,47.816L231.46,66.551L252.75,66.551L252.75,66.551L231.46,66.551L231.46,57.184L205.24,57.184L205.24,85.287L231.46,85.287L231.46,85.287L205.24,85.287L205.24,71.235L171.09,71.235L171.09,113.39L205.24,113.39L205.24,104.02L229.82,104.02L229.82,104.02L205.24,104.02L205.24,122.76L229.82,122.76L229.82,122.76L205.24,122.76L205.24,113.39L171.09,113.39L171.09,92.312L126.84,92.312L126.84,141.49L171.09,141.49L171.09,141.49L126.84,141.49L126.84,116.9L43.105,116.9L43.105,341.29L126.84,341.29L126.84,288.16L167.42,288.16L167.42,240.44L210.4,240.44L210.4,217.6L249.11,217.6L249.11,200.04L283.56,200.04L283.56,183.65L316.68,183.65L316.68,169.6L348.5,169.6L348.5,160.23L380.39,160.23L380.39,160.23L348.5,160.23L348.5,178.96L380.39,178.96L380.39,178.96L348.5,178.96L348.5,169.6L316.68,169.6L316.68,197.7L348.5,197.7L348.5,197.7L316.68,197.7L316.68,183.65L283.56,183.65L283.56,216.43L316.68,216.43L316.68,216.43L283.56,216.43L283.56,200.04L249.11,200.04L249.11,235.17L283.56,235.17L283.56,235.17L249.11,235.17L249.11,217.6L210.4,217.6L210.4,263.27L249.11,263.27L249.11,253.9L274.69,253.9L274.69,253.9L249.11,253.9L249.11,272.64L274.69,272.64L274.69,272.64L249.11,272.64L249.11,263.27L210.4,263.27L210.4,240.44L167.42,240.44L167.42,335.87L210.4,335.87L210.4,314.79L244.8,314.79L244.8,300.74L275.82,300.74L275.82,291.38L299.57,291.38L299.57,291.38L275.82,291.38L275.82,310.11L299.57,310.11L299.57,310.11L275.82,310.11L275.82,300.74L244.8,300.74L244.8,328.85L275.82,328.85L275.82,328.85L244.8,328.85L244.8,314.79L210.4,314.79L210.4,356.95L244.8,356.95L244.8,347.58L267.83,347.58L267.83,347.58L244.8,347.58L244.8,366.32L267.83,366.32L267.83,366.32L244.8,366.32L244.8,356.95L210.4,356.95L210.4,335.87L167.42,335.87L167.42,288.16L126.84,288.16L126.84,394.42L167.42,394.42L167.42,385.05L207.82,385.05L207.82,385.05L167.42,385.05L167.42,403.79L207.82,403.79L207.82,403.79L167.42,403.79L167.42,394.42L126.84,394.42L126.84,341.29L43.105,341.29L43.105,229.09L43.105,229.09L43.105,229.09" style="fill:none;stroke:#000000" />
<text x="252.75" y="-48.001" transform="scale(1, -1)"
	style="font-family:Times;font-weight:normal;font-style:normal;font-size:10px">tablelamp</text>
<text x="252.75" y="-66.737" transform="scale(1, -1)"
	style="font-family:Times;font-weight:normal;font-style:normal;font-size:10px">person</text>
<text x="231.46" y="-85.472" transform="scale(1, -1)"
	style="font-family:Times;font-weight:normal;font-style:normal;font-size:10px">guitar</text>
<text x="229.82" y="-104.21" transform="scale(1, -1)"
	style="font-family:Times;font-weight:normal;font-style:normal;font-size:10px">sailboat</text>
<text x="229.82" y="-122.94" transform="scale(1, -1)"
	style="font-family:Times;font-weight:normal;font-style:normal;font-size:10px">trafficcone</text>
<text x="171.09" y="-141.68" transform="scale(1, -1)"
	style="font-family:Times;font-weight:normal;font-style:normal;font-size:10px">banana</text>
<text x="380.39" y="-160.41" transform="scale(1, -1)"
	style="font-family:Times;font-weight:normal;font-style:normal;font-size:10px">piano</text>
<text x="380.39" y="-179.15" transform="scale(1, -1)"
	style="font-family:Times;font-weight:normal;font-style:normal;font-size:10px">slrcamera</text>
<text x="348.5" y="-197.88" transform="scale(1, -1)"
	style="font-family:Times;font-weight:normal;font-style:normal;font-size:10px">elephant</text>
<text x="316.68" y="-216.62" transform="scale(1, -1)"
	style="font-family:Times;font-weight:normal;font-style:normal;font-size:10px">fish</text>
<text x="283.56" y="-235.35" transform="scale(1, -1)"
	style="font-family:Times;font-weight:normal;font-style:normal;font-size:10px">motorcycle</text>
<text x="274.69" y="-254.09" transform="scale(1, -1)"
	style="font-family:Times;font-weight:normal;font-style:normal;font-size:10px">donut</text>
<text x="274.69" y="-272.83" transform="scale(1, -1)"
	style="font-family:Times;font-weight:normal;font-style:normal;font-size:10px">doorknob</text>
<text x="299.57" y="-291.56" transform="scale(1, -1)"
	style="font-family:Times;font-weight:normal;font-style:normal;font-size:10px">stapler</text>
<text x="299.57" y="-310.3" transform="scale(1, -1)"
	style="font-family:Times;font-weight:normal;font-style:normal;font-size:10px">trex</text>
<text x="275.82" y="-329.03" transform="scale(1, -1)"
	style="font-family:Times;font-weight:normal;font-style:normal;font-size:10px">heavycannon</text>
<text x="267.83" y="-347.77" transform="scale(1, -1)"
	style="font-family:Times;font-weight:normal;font-style:normal;font-size:10px">car</text>
<text x="267.83" y="-366.5" transform="scale(1, -1)"
	style="font-family:Times;font-weight:normal;font-style:normal;font-size:10px">layercake</text>
<text x="207.82" y="-385.24" transform="scale(1, -1)"
	style="font-family:Times;font-weight:normal;font-style:normal;font-size:10px">chair</text>
<text x="207.82" y="-403.97" transform="scale(1, -1)"
	style="font-family:Times;font-weight:normal;font-style:normal;font-size:10px">handgun</text>
<path d="M399.25,407.72L419.25,407.72" style="fill:none;stroke:#000000" />
<text x="387.91" y="-402.08" transform="scale(1, -1)"
	style="font-family:Helvetica;font-weight:normal;font-style:normal;font-size:12px">Y</text>
</g>
</svg>
